<?xml version="1.0" encoding="utf-8"?>
<!-- Generator: Adobe Illustrator 17.0.0, SVG Export Plug-In . SVG Version: 6.00 Build 0)  -->
<!DOCTYPE svg PUBLIC "-//W3C//DTD SVG 1.1//EN" "http://www.w3.org/Graphics/SVG/1.1/DTD/svg11.dtd">
<svg version="1.1" id="Layer_1" xmlns="http://www.w3.org/2000/svg" xmlns:xlink="http://www.w3.org/1999/xlink" x="0px" y="0px"
	 width="100px" height="100px" viewBox="0 0 100 100" enable-background="new 0 0 100 100" xml:space="preserve">
<path fill="#231F20" d="M9.201,51.325c-0.432,0.096-0.696,0.264-1.224,0.048c-0.168,0.168-0.288,0.312-0.288,0.816
	c0,0.479,0.384,0.888,0.432,1.32c0.072,0.432-0.432,0.96-0.216,1.512c0.168,0.096,0.432-0.12,0.816-0.048
	c0.36,0.048,0.48,0.264,0.96-0.12s0.048-0.864,0.432-1.272c0.384-0.432,0.264-0.552,0.096-1.248
	C10.065,51.637,9.633,51.205,9.201,51.325z"/>
<path fill="#231F20" d="M31.665,50.75c0-0.312-0.288-0.672-0.48-1.152c-0.168-0.48,0.312-0.792,0.312-1.152
	c0-0.36-0.408-0.72-0.48-1.224c-0.048-0.48,0.048-0.84-0.192-1.56c-0.24,0.288-0.552,0.6-0.6,1.272c-0.048,0.576-0.048,0.84,0,1.32
	c0.072,0.504-0.36,0.792-0.624,1.344c-0.24,0.552,0.144,0.912,0.072,1.392c-0.072,0.479-0.432,0.792-0.36,1.464
	c0.288,0.24,0.672,0,1.2-0.072c0.552-0.071,0.744,0.433,1.224,0.192c-0.072-0.384-0.192-0.504-0.24-0.912
	C31.424,51.229,31.665,51.037,31.665,50.75z"/>
<path fill="#231F20" d="M68.625,46.381c-0.216-0.48-0.408-0.408-0.12-1.296c0.12-0.336-0.144-0.552-0.312-1.104
	c0.024-1.008-0.863-0.984-1.512-0.504c-0.672,0.504-0.672,0.888-0.504,1.536c0.168,0.672-0.48,0.912-0.648,1.488
	s-0.071,0.816,0.336,1.488c0.408,0.648-0.407,0.96-0.239,1.464c0.144,0.48-0.097,0.912-0.168,1.32
	c-0.097,0.408,0.288,1.128,0.552,1.632c0.24,0.48,0.432,0.408,0.168,1.32c-0.24,0.888,0.264,1.32,0.72,1.536
	c0.576,0.288,1.032,0.336,1.296-0.312c-0.239-0.552,0.288-0.456,0.433-0.84c0.144-0.36,0.072-0.937,0.264-1.536
	c0.192-0.576,0.408-1.056,0.024-1.728c-0.384-0.672-0.072-1.008-0.216-1.488c-0.145-0.504,0.359-0.888,0.456-1.296
	C69.249,47.653,68.865,46.885,68.625,46.381z"/>
<path fill="#231F20" d="M8,47.389c0.312,0,1.512,0.048,1.512-0.672c0-0.72-0.024-0.48,0.384-1.056c0.408-0.552,0.12-1.2-0.024-1.561
	c-0.264-0.648-0.456-0.336-0.888-0.552c-0.384-0.168-0.648-0.336-1.104-0.216c0.096,0.576,0.216,0.816,0.216,1.368
	c0,0.576-0.408,1.128-0.312,1.464C7.856,46.477,8.073,46.981,8,47.389z"/>
<path fill="#231F20" d="M90,0H10C4.477,0,0,4.477,0,10v80c0,5.523,4.477,10,10,10h80c5.523,0,10-4.477,10-10V10
	C100,4.477,95.523,0,90,0z M14.073,53.773c-0.264,0.984-0.912,1.68-1.08,2.376c-0.144,0.696-0.216,1.488-0.696,1.872
	c-0.48,0.36-0.84,0.216-1.272,0.433c-0.432,0.216-0.744,0.479-1.392,0.359c-0.648-0.096-1.296-0.359-1.944-0.312
	c-0.624,0.048-1.44,0.527-1.968,0.432c-0.528-0.12-1.296-0.384-1.561-0.647c0.168-0.816,0.072-1.488-0.144-2.089
	c-0.504-1.296,0.48-1.536,0.384-2.736c-0.072-1.199-0.696-1.607-0.624-2.64C3.873,49.765,4.4,49.285,4.4,48.325
	s-0.48-1.368-0.312-2.088c0.168-0.72,0.48-1.44,0.48-2.088s-0.552-0.888-0.48-1.68c0.072-0.816,0.312-1.536,0-2.256
	c0.792-0.312,1.368-0.168,1.368-0.168c0.552,0.168,0.888,0.336,1.368,0c0.48-0.312,1.248-0.288,1.728-0.12
	c0.456,0.144,0.816,0.336,1.128,0.12s0.984-0.192,1.417,0.024c0.432,0.216,0.36,0.672,0.936,1.008c1.152,0.24,1.32,0.576,1.32,0.576
	c0.24,0.528,0.456,0.96,0.192,1.44c-0.264,0.48,0.288,1.344,0.288,1.728c0,0.36-0.312,0.408-0.528,0.936
	c-0.216,0.528-0.096,1.104-0.24,1.464c-0.168,0.384-1.032,0.744-0.984,1.128c0.816,0.384,1.032,0.576,1.248,1.152
	c0.48,1.296-0.168,1.344,0.048,2.255C13.593,52.669,14.337,52.813,14.073,53.773z M23.169,58.069
	c-0.816,0.168-1.008-0.191-2.28,0.337c-0.744,0.312-1.224,0.479-1.776,0.264c-0.528-0.216-1.44-0.384-1.873-0.264
	c-0.432,0.096-1.368,0.239-2.064-0.169c0.168-0.647,0.384-1.439,0.096-2.256c-0.264-0.792,0.144-0.96,0.144-1.44
	c0-0.479-0.216-1.008-0.048-1.655c0.168-0.648,0.216-1.345-0.096-2.304c-0.336-0.96-0.216-1.824,0.096-2.736
	s-0.384-1.992-0.432-2.256c-0.048-0.264,0.336-0.576,0.384-1.44c0.048-0.864-0.552-1.008-0.6-1.776
	c-0.048-0.744,0.432-1.32,0.384-1.872c0.264-0.096,0.648-0.096,1.176,0c0.528,0.12,0.864-0.144,1.296-0.312
	c0.408-0.168,0.96-0.312,1.752,0c0.216,0.432-0.048,0.744-0.168,1.344c-0.096,0.576,0.552,1.056,0.288,1.488
	c-0.288,0.432-0.384,0.912-0.288,1.296c0.12,0.432,0.168,1.224-0.048,1.608c-0.216,0.36-0.216,0.912-0.048,1.272
	c0.096,0.216,0.192,0.432,0.096,0.96c-0.12,0.552-0.36,0.552-0.096,1.464c0.264,0.912,0.168,1.392,0,1.656
	c-0.168,0.359,0.168,0.576,0.048,1.344c-0.096,0.744-0.312,0.48-0.432,0.912c-0.096,0.408-0.096,0.96,0.168,1.32
	c0.864-0.145,1.128-0.096,1.992,0.12c0.84,0.216,0.84-0.216,1.224-0.265c0.384-0.071,0.648-0.071,1.176,0.145
	c0,0.336,0.048,0.6,0.216,1.032c0.168,0.432-0.384,0.624-0.384,1.176C23.073,57.59,23.385,57.542,23.169,58.069z M35.601,58.742
	c-0.288-0.168-0.408,0.239-1.032,0.239c-0.36,0-0.528-0.359-0.84-0.359c-0.288,0-0.288,0.455-1.032,0.239
	c-0.048-0.432,0.36-0.792,0.12-1.151c-0.24-0.36-0.48-0.672-0.528-0.96c-0.072-0.312,0.24-0.673,0.168-0.984
	c-0.6-0.168-0.696,0.072-1.512,0.312c-0.432,0.12-0.672-0.432-0.96-0.359c-0.312,0.048-0.312,0.264-0.624,0.336
	c0,0-0.264-0.192-0.648-0.048c0.12,0.552,0.048,0.864-0.12,1.151C28.4,57.47,28.4,57.95,28.52,58.382
	c-0.6,0.36-0.72,0.216-1.08,0.048c-0.384-0.192-0.432,0.12-0.864,0.192c-0.408,0.048-0.552-0.312-0.912-0.312
	c-0.36,0-0.6,0.504-1.152,0.312c-0.048-0.672,0.24-0.721,0.24-1.2c0-0.504-0.168-0.552-0.048-1.272c0.12-0.744,0.6-0.672,0.72-1.224
	c0.12-0.553-0.312-1.08-0.24-1.704c0.048-0.601,0.552-0.48,0.48-1.032c-0.048-0.528-0.048-1.32,0-1.8
	c0.072-0.504,0.624-0.744,0.552-1.464c-0.048-0.72-0.192-1.272-0.048-1.512c0.12-0.24,0.408-0.312,0.408-0.792
	s-0.48-1.08-0.12-1.584c0.36-0.48,0.72-0.888,0.792-1.32c0.072-0.432-0.36-1.032-0.072-1.632c0.312-0.6,0.384-0.432,0.384-0.792
	c0-0.36-0.192-0.72,0-1.08c0.48-0.072,0.528,0.24,0.96,0.168c0.432-0.048,0.6-0.552,1.032-0.432c0.432,0.12,1.032,0.504,1.512,0.384
	s0.72-0.24,1.224-0.312c0.48-0.048,0.528,0.192,1.44,0.12c0.192,0.432-0.168,0.96-0.048,1.392s0.528,0.72,0.528,1.512
	c0,0.792-0.408,0.984-0.168,1.512c0.24,0.552,0.36,0.624,0.36,1.224s0.432,1.152,0.552,1.824c0.12,0.648-0.384,1.08-0.192,1.68
	s0.72,1.272,0.72,1.704c0,0.432-0.216,0.84-0.168,1.32c0.072,0.504,0.6,0.912,0.672,1.536c0.048,0.6-0.36,1.2-0.12,1.8
	c0.264,0.624,0.48,1.464,0.48,1.824s0.12,0.96,0.36,1.272C36.321,59.006,35.913,58.934,35.601,58.742z M47.792,55.741
	c-0.048,0.673-0.744,0.792-0.983,1.152c-0.24,0.384,0.144,0.408-0.288,1.225c-0.408,0.815-1.104,0.527-1.681,0.527
	s-0.24,0.48-1.464,0.648c-1.248,0.168-1.656-0.504-2.136-0.912c-0.504-0.408-0.648-0.168-1.224-0.312
	c-0.576-0.168-0.672-0.912-0.744-1.392c-0.072-0.504-1.224-1.152-1.32-1.896c-0.072-0.744-0.072-0.815,0.096-1.728
	c0.144-0.816-0.504-1.561-0.576-2.28c-0.072-0.744,0.408-1.248,0.408-1.896c0-0.648-0.576-1.393-0.648-2.136
	c-0.096-0.744,0.888-1.152,0.816-1.873c-0.096-0.744-0.168-0.576-0.168-1.32s0.912-1.224,1.152-1.56
	c0.24-0.336,0.168-0.744,0.48-1.152c0.336-0.408,1.08-0.648,1.632-0.648c0.576,0,0.672-0.408,1.392-0.648
	c0.744-0.264,1.2-0.192,1.704,0.048c0.48,0.24,0.48,0.768,1.392,0.864c0.889,0.072,1.104,0.576,1.08,1.344
	c-0.023,0.744,0.384,0.432,0.937,1.393c0.384,0.672-0.048,1.2,0.527,1.992c-0.287,0.432-0.888,0.456-1.536,0.576
	c-0.647,0.096-0.912-0.144-1.848,0.648c-0.36-0.624-0.048-0.696-0.168-1.104c-0.144-0.432-0.72-0.672-0.624-1.32
	c0.024-1.008-0.888-1.008-1.536-0.504c-0.648,0.48-0.624,0.888-0.48,1.536c0.168,0.672-0.504,0.912-0.672,1.488
	s0.264,1.056,0.672,1.728c0.408,0.648-0.504,0.72-0.336,1.224c0.168,0.48-0.336,0.912-0.408,1.32
	c-0.096,0.408,0.336,1.128,0.576,1.632c0.24,0.48,0.432,0.408,0.168,1.32c-0.24,0.888,0.12,1.416,1.032,1.536
	c0.624,0.072,1.056,0.336,0.96-0.312c-0.096-0.6,0.264-0.456,0.432-0.84c0.144-0.36,0.216-0.912,0.264-1.272
	c0.552,0.049,1.08-0.096,1.584,0.36c0.553,0.48,1.368,0.72,1.896,0.601C48.464,54.397,47.697,55.117,47.792,55.741z M56.77,49.069
	c0.384,0.696,0.672,0.768,0.647,1.176c-0.071,0.888,0.601,1.176,0.744,1.632c0.168,0.553,0.072,0.912,0.336,1.513
	c0.265,0.6,0.648,0.72,1.032,1.344c0.385,0.601,0.192,1.032,0.385,1.393c0.216,0.359,0.624,0.672,0.912,1.2
	c0.312,0.552,0,0.72,0.288,1.128c-0.24,0.312-0.625,0.071-1.009,0.12c-0.408,0.071-0.624,0.432-1.152,0.359
	c-0.504-0.048-0.911-0.479-1.128-0.432c-0.216,0.072-0.239,0.24-0.84,0.191c-0.528-0.672-0.336-0.912-0.576-1.392
	c-0.264-0.504-0.432-0.504-0.647-0.792c-0.24-0.312-0.12-0.864-0.265-1.152c-0.359-0.792-0.768-0.936-1.008-1.68
	c-0.168-0.48,0.216-1.44-0.84-2.328c-0.048,0.695-0.072,1.176-0.072,1.632c0,0.6,0.312,1.296,0.432,1.776
	c0.097,0.479-0.144,0.792-0.264,1.296c-0.12,0.576,0.024,0.888,0.096,1.104c0,0,0.288,0.841,0.049,1.297
	c-0.433,0.312-1.081-0.12-1.608-0.168c-0.528-0.049-0.696,0.384-1.321,0.384c0,0-0.456,0-1.296-0.336
	c0.12-0.36,0.048-1.008-0.097-1.584c-0.168-0.601,0.312-1.248,0.36-1.729s-0.504-1.344-0.648-1.968
	c-0.168-0.648,0.265-1.776,0.433-2.376c0.144-0.576-0.145-1.392-0.36-1.872s0.312-1.44,0.528-2.232
	c0.216-0.816-0.432-1.873-0.432-2.641c0-0.744,0.168-1.32,0.336-1.872c0.144-0.528,0.144-0.84-0.168-1.536
	c0.359-0.336,0.695,0.048,1.344-0.336c0.481-0.288,0.84-0.12,1.392,0c0.528,0.096,0.696-0.168,1.225-0.216
	c-0.048,0.6,0.264,1.608,0.432,2.304c0.145,0.696-0.407,1.872-0.479,2.472c-0.048,0.576,0.096,1.128,0.096,1.92
	c0.408-0.72,0.576-0.912,0.816-1.32c0.288-0.48,0.84-0.984,0.983-1.417c0.288-0.84,0.049-1.008,0.36-1.752
	c0.312-0.768,0.601-1.272,1.057-1.728c0.312-0.096,0.695-0.096,1.176,0c0.479,0.12,0.936-0.144,1.44-0.312
	c0.504-0.168,1.128-0.312,1.775,0c0,0.432-0.407,0.744-0.815,1.344c-0.384,0.576,0,1.056-0.48,1.488
	c-0.479,0.432-0.552,0.984-0.624,1.368c-0.144,0.696-0.672,0.6-0.936,1.128c-0.168,0.336-0.24,0.984-0.673,1.392
	c-0.432,0.432-0.84,0.672-0.912,0.984C56.697,48.133,56.434,48.469,56.77,49.069z M72.009,55.741
	c-0.048,0.673-0.768,0.792-1.008,1.152c-0.24,0.384,0.145,0.408-0.264,1.225c-0.408,0.815-1.104,0.527-1.681,0.527
	s-0.264,0.48-1.488,0.648c-1.224,0.168-1.632-0.504-2.111-0.912c-0.505-0.408-0.673-0.145-1.248-0.312
	c-0.553-0.144-0.648-0.912-0.721-1.392c-0.096-0.504-1.224-1.152-1.32-1.896c-0.071-0.744-0.071-0.815,0.097-1.728
	c0.144-0.816-0.504-1.561-0.576-2.28c-0.096-0.744,0.408-1.248,0.408-1.896c0-0.648-0.576-1.393-0.673-2.136
	c-0.071-0.744,0.912-1.152,0.841-1.873c-0.097-0.744-0.168-0.576-0.168-1.32s0.888-1.224,1.128-1.56
	c0.264-0.336,0.168-0.744,0.504-1.152c0.336-0.408,1.056-0.648,1.632-0.648s0.648-0.408,1.393-0.648
	c0.744-0.264,1.2-0.192,1.704,0.048c0.479,0.24,0.479,0.768,1.392,0.864c0.889,0.072,1.416,0.48,1.393,1.224
	c-0.024,0.768,0.384,0.432,0.936,1.416c0.385,0.648-0.264,0.768,0.312,1.536c0.168,0.336-0.144,0.96-0.192,1.32
	c-0.144,0.816,0.385,1.344,0.48,2.088c0.072,0.744-0.408,1.224-0.408,1.896c0,0.648,0.576,1.392,0.648,2.136
	c0.071,0.72-0.696,0.984-0.624,1.729C72.514,54.854,71.913,55.117,72.009,55.741z M85.233,42.876
	c-0.264,0.432-0.336,0.912-0.24,1.272c0.192,0.696-0.336,0.864-0.071,1.224c0.24,0.36,0.12,0.72-0.12,1.152
	c-0.216,0.408-0.384,0.912-0.312,1.2c0.049,0.312,0.48,1.032,0.456,1.632c-0.048,0.624-0.096,0.672-0.144,1.056
	c-0.048,0.48,0.384,0.839,0.336,1.488c-0.072,0.744-0.552,0.936-0.456,1.68c0.12,1.057-0.384,1.368-0.288,1.992
	c-0.048,0.672-0.744,0.841-0.984,1.225c-0.239,0.359-0.144,0.936-0.432,1.2c-0.672,0.647-1.225,0.479-1.8,0.479
	c-0.576,0-0.24,0.48-1.488,0.648c-1.225,0.168-2.064-0.48-2.545-0.889c-0.504-0.407-0.647-0.168-1.224-0.336
	s-0.672-0.912-0.744-1.392c-0.072-0.504-1.224-1.152-1.32-1.896c-0.072-0.72-0.072-0.815,0.097-1.704
	c0.144-0.816-0.36-1.608-0.169-2.328c0.169-0.576-0.168-1.392-0.384-1.873c-0.216-0.48,0.312-1.44,0.528-2.256
	c0.192-0.792-0.408-1.872-0.408-2.616s0.145-1.344,0.312-1.872c0.168-0.528,0.168-0.864-0.168-1.561
	c0.384-0.312,0.695,0.048,1.344-0.312c0.48-0.288,0.864-0.12,1.393,0c0.527,0.096,0.695-0.168,1.224-0.216
	c-0.048,0.576,0.288,1.608,0.432,2.304c0.168,0.696-0.432,1.872-0.479,2.448c-0.048,0.6,0.264,0.984,0.384,1.776
	c0.048,0.384-0.456,0.984-0.408,1.368c0.12,0.768,0.336,1.296,0.288,1.68c-0.072,0.504-0.191,0.744-0.264,1.152
	c-0.096,0.407,0.023,1.2,0.288,1.704c0.24,0.479,0.6,0.384,0.384,1.271c-0.192,0.889,0.36,1.416,0.769,1.633
	c0.479,0.264,0.911,0.168,1.128-0.48c-0.192-0.528,0.527-0.504,0.647-0.864c0.12-0.359-0.216-0.888-0.048-1.464
	c0.168-0.552,0.672-1.032,0.288-1.704s-0.072-1.008-0.216-1.512c-0.145-0.504,0.408-0.888,0.456-1.296
	c0.048-0.48-0.048-0.768-0.216-1.128c-0.12-0.288-0.336-0.792-0.265-1.272c0.048-0.48,0.336-0.984,0.288-1.416
	c-0.12-0.84-0.312-1.248-0.384-2.016c-0.048-0.744,0.264-1.176,0.192-1.704c0.288-0.12,0.647-0.12,1.2,0
	c0.527,0.096,0.84-0.168,1.271-0.312c0.433-0.168,0.96-0.336,1.776,0c0.216,0.408-0.072,0.744-0.168,1.32
	C84.874,41.965,85.498,42.445,85.233,42.876z M95.961,43.093c0.192,0.36,0.072,0.624-0.048,1.008
	c-0.479,0.168-0.72-0.144-1.032-0.144c-0.288,0-0.359,0.432-0.72,0.432s-0.552-0.24-0.912-0.168c-0.24,0.648-0.36,0.84-0.12,1.2
	s0.12,0.72-0.096,1.152c-0.24,0.432-0.408,0.912-0.336,1.224c0.072,0.288,0.528,1.008,0.479,1.632c-0.048,0.6-0.216,0.72-0.216,1.08
	c0.024,0.672,0.384,0.864,0.288,1.392c-0.12,0.552-0.384,0.912-0.432,1.512c-0.048,0.624,0.264,0.744,0.336,1.345
	c0.096,0.6-0.312,1.032-0.312,1.392c0.024,0.36,0.265,0.672,0.288,1.2c0.024,0.552-0.096,0.552-0.023,0.984
	c-0.433,0.288-0.673,0.048-1.104,0.12c-0.408,0.048-0.456,0.504-0.96,0.432c-0.48-0.048-0.672-0.504-0.912-0.432
	c-0.24,0.048-0.36,0.239-0.912,0.168c-0.216-0.648,0.168-0.889,0.144-1.393c0-0.479-0.216-0.479-0.287-0.768
	c-0.072-0.312,0.336-0.864,0.359-1.152c0.024-0.792-0.552-1.032-0.456-1.752c0.097-0.744,0.504-0.624,0.408-1.296
	c-0.048-0.433-0.408-0.721-0.336-1.392c0.048-0.408,0.384-0.72,0.384-1.032c0-0.288-0.696-0.648-0.479-1.512
	c0.216-0.84,0.432-1.008,0.336-1.512c-0.072-0.288-0.336-0.792-0.265-1.272c0.049-0.48,0.288-0.912,0.24-1.32
	c-0.36-0.192-0.647,0.072-1.008,0.192c-0.36,0.12-0.36-0.36-0.937-0.168c-0.527,0.168-0.624,0.24-1.032,0.072
	c-0.119-0.552,0.24-0.744,0.24-1.224s-0.479-0.672-0.359-1.032c0.119-0.36,0.239-0.6,0.239-0.84c0-0.24-0.288-0.456,0.024-0.864
	c0.479,0.24,0.672-0.144,1.296-0.096c0.36,0.024,0.648,0.24,1.008,0.24c0.36,0,0.721-0.456,1.152-0.384
	c0.433,0.072,0.576,0.24,0.816,0.168c0.24-0.048,0.312-0.24,0.672-0.168c0.36,0.048,0.792,0.24,1.08,0.168
	c0.312-0.048,0.552-0.264,1.032-0.096c0.479,0.192,0.384,0.264,0.792,0.216c0.432-0.072,0.432-0.432,0.864-0.312
	c0.408,0.12,0.527,0.24,0.96,0.12c0.12,0.48-0.24,0.552-0.24,0.96c0,0.432,0.48,0.624,0.433,0.912
	C96.226,42.396,95.77,42.733,95.961,43.093z"/>
<path fill="#FFFFFF" d="M13.329,49.501c-0.216-0.576-0.432-0.768-1.248-1.152c-0.048-0.384,0.816-0.744,0.984-1.128
	c0.144-0.36,0.024-0.936,0.24-1.464c0.216-0.528,0.528-0.576,0.528-0.936c0-0.384-0.552-1.248-0.288-1.728
	c0.264-0.48,0.048-0.912-0.192-1.44c0,0-0.168-0.336-1.32-0.576c-0.576-0.336-0.504-0.792-0.936-1.008
	c-0.432-0.216-1.104-0.24-1.417-0.024s-0.672,0.024-1.128-0.12c-0.48-0.168-1.248-0.192-1.728,0.12c-0.48,0.336-0.816,0.168-1.368,0
	c0,0-0.576-0.144-1.368,0.168c0.312,0.72,0.072,1.44,0,2.256c-0.072,0.792,0.48,1.032,0.48,1.68s-0.312,1.368-0.48,2.088
	C3.92,46.957,4.4,47.365,4.4,48.325s-0.528,1.44-0.624,2.496c-0.072,1.032,0.552,1.44,0.624,2.64c0.096,1.2-0.888,1.44-0.384,2.736
	c0.216,0.601,0.312,1.272,0.144,2.089c0.264,0.264,1.032,0.527,1.561,0.647c0.528,0.096,1.344-0.384,1.968-0.432
	c0.648-0.048,1.296,0.216,1.944,0.312c0.648,0.12,0.96-0.144,1.392-0.359c0.432-0.217,0.792-0.072,1.272-0.433
	c0.48-0.384,0.552-1.176,0.696-1.872c0.168-0.696,0.816-1.392,1.08-2.376c0.264-0.96-0.48-1.104-0.696-2.017
	C13.161,50.845,13.809,50.797,13.329,49.501z M7.881,43.333c0.456-0.12,0.72,0.048,1.104,0.216c0.432,0.216,0.624-0.096,0.888,0.552
	c0.144,0.36,0.432,1.008,0.024,1.561c-0.408,0.576-0.384,0.336-0.384,1.056c0,0.72-1.2,0.672-1.512,0.672
	c0.072-0.408-0.144-0.912-0.216-1.224c-0.096-0.336,0.312-0.888,0.312-1.464C8.097,44.149,7.977,43.909,7.881,43.333z
	 M10.113,53.581c-0.384,0.408,0.048,0.889-0.432,1.272s-0.6,0.168-0.96,0.12c-0.384-0.072-0.648,0.144-0.816,0.048
	c-0.216-0.552,0.288-1.08,0.216-1.512c-0.048-0.433-0.432-0.841-0.432-1.32c0-0.504,0.12-0.648,0.288-0.816
	c0.528,0.216,0.792,0.048,1.224-0.048c0.432-0.12,0.864,0.312,1.008,1.008C10.377,53.029,10.497,53.149,10.113,53.581z"/>
<path fill="#FFFFFF" d="M23.457,55.886c-0.168-0.433-0.216-0.696-0.216-1.032c-0.528-0.216-0.792-0.216-1.176-0.145
	c-0.384,0.049-0.384,0.48-1.224,0.265c-0.864-0.216-1.128-0.265-1.992-0.12c-0.264-0.36-0.264-0.912-0.168-1.32
	c0.12-0.432,0.336-0.168,0.432-0.912c0.12-0.768-0.216-0.984-0.048-1.344c0.168-0.265,0.264-0.744,0-1.656
	c-0.264-0.912-0.024-0.912,0.096-1.464c0.096-0.528,0-0.744-0.096-0.96c-0.168-0.36-0.168-0.912,0.048-1.272
	c0.216-0.384,0.168-1.176,0.048-1.608c-0.096-0.384,0-0.864,0.288-1.296c0.264-0.432-0.384-0.912-0.288-1.488
	c0.12-0.6,0.384-0.912,0.168-1.344c-0.792-0.312-1.344-0.168-1.752,0c-0.432,0.168-0.768,0.432-1.296,0.312
	c-0.528-0.096-0.912-0.096-1.176,0c0.048,0.552-0.432,1.128-0.384,1.872c0.048,0.768,0.648,0.912,0.6,1.776
	c-0.048,0.864-0.432,1.176-0.384,1.44c0.048,0.264,0.744,1.344,0.432,2.256s-0.432,1.776-0.096,2.736
	c0.312,0.959,0.264,1.656,0.096,2.304c-0.168,0.647,0.048,1.176,0.048,1.655c0,0.48-0.408,0.648-0.144,1.44
	c0.288,0.816,0.072,1.608-0.096,2.256c0.696,0.408,1.632,0.265,2.064,0.169c0.432-0.12,1.344,0.048,1.873,0.264
	c0.552,0.216,1.032,0.048,1.776-0.264c1.272-0.528,1.464-0.169,2.28-0.337c0.216-0.527-0.096-0.479-0.096-1.008
	C23.073,56.51,23.625,56.317,23.457,55.886z"/>
<path fill="#FFFFFF" d="M35.865,55.646c-0.24-0.6,0.168-1.2,0.12-1.8c-0.072-0.624-0.6-1.032-0.672-1.536
	c-0.048-0.48,0.168-0.889,0.168-1.32c0-0.432-0.528-1.104-0.72-1.704s0.312-1.032,0.192-1.68c-0.12-0.672-0.552-1.224-0.552-1.824
	s-0.12-0.672-0.36-1.224c-0.24-0.528,0.168-0.72,0.168-1.512c0-0.792-0.408-1.08-0.528-1.512s0.24-0.96,0.048-1.392
	c-0.912,0.072-0.96-0.168-1.44-0.12c-0.504,0.072-0.744,0.192-1.224,0.312s-1.08-0.264-1.512-0.384
	c-0.432-0.12-0.6,0.384-1.032,0.432c-0.432,0.072-0.48-0.24-0.96-0.168c-0.192,0.36,0,0.72,0,1.08c0,0.36-0.072,0.192-0.384,0.792
	c-0.288,0.6,0.144,1.2,0.072,1.632c-0.072,0.432-0.432,0.84-0.792,1.32c-0.36,0.504,0.12,1.104,0.12,1.584s-0.288,0.552-0.408,0.792
	c-0.144,0.24,0,0.792,0.048,1.512c0.072,0.72-0.48,0.96-0.552,1.464c-0.048,0.48-0.048,1.272,0,1.8
	c0.072,0.552-0.432,0.432-0.48,1.032c-0.072,0.624,0.36,1.151,0.24,1.704c-0.12,0.552-0.6,0.479-0.72,1.224
	c-0.12,0.721,0.048,0.769,0.048,1.272c0,0.479-0.288,0.528-0.24,1.2c0.552,0.191,0.792-0.312,1.152-0.312
	c0.36,0,0.504,0.36,0.912,0.312c0.432-0.072,0.48-0.385,0.864-0.192c0.36,0.168,0.48,0.312,1.08-0.048
	c-0.12-0.432-0.12-0.912,0.072-1.225c0.168-0.287,0.24-0.6,0.12-1.151c0.384-0.145,0.648,0.048,0.648,0.048
	c0.312-0.072,0.312-0.288,0.624-0.336c0.288-0.072,0.528,0.479,0.96,0.359c0.816-0.239,0.912-0.479,1.512-0.312
	c0.072,0.312-0.24,0.672-0.168,0.984c0.048,0.288,0.288,0.6,0.528,0.96c0.24,0.359-0.168,0.72-0.12,1.151
	c0.744,0.216,0.744-0.239,1.032-0.239c0.312,0,0.48,0.359,0.84,0.359c0.624,0,0.744-0.407,1.032-0.239
	c0.312,0.191,0.72,0.264,1.104,0c-0.24-0.312-0.36-0.912-0.36-1.272S36.129,56.27,35.865,55.646z M30.512,52.381
	c-0.528,0.072-0.912,0.312-1.2,0.072c-0.072-0.672,0.288-0.984,0.36-1.464c0.072-0.48-0.312-0.84-0.072-1.392
	c0.264-0.552,0.696-0.84,0.624-1.344c-0.048-0.48-0.048-0.744,0-1.32c0.048-0.672,0.36-0.984,0.6-1.272
	c0.24,0.72,0.144,1.08,0.192,1.56c0.072,0.504,0.48,0.864,0.48,1.224c0,0.36-0.48,0.672-0.312,1.152
	c0.192,0.48,0.48,0.84,0.48,1.152c0,0.288-0.24,0.48-0.168,0.912c0.048,0.408,0.168,0.528,0.24,0.912
	C31.256,52.813,31.064,52.31,30.512,52.381z"/>
<path fill="#FFFFFF" d="M46.256,53.197c-0.504-0.456-1.032-0.312-1.584-0.36c-0.048,0.36-0.12,0.912-0.264,1.272
	c-0.168,0.384-0.528,0.24-0.432,0.84c0.096,0.648-0.336,0.385-0.96,0.312c-0.912-0.12-1.272-0.648-1.032-1.536
	c0.264-0.912,0.072-0.84-0.168-1.32c-0.24-0.504-0.672-1.224-0.576-1.632c0.072-0.408,0.576-0.84,0.408-1.32
	c-0.168-0.504,0.744-0.576,0.336-1.224c-0.408-0.672-0.84-1.152-0.672-1.728s0.84-0.816,0.672-1.488
	c-0.144-0.648-0.168-1.056,0.48-1.536c0.648-0.504,1.56-0.504,1.536,0.504c-0.096,0.648,0.48,0.888,0.624,1.32
	c0.12,0.408-0.192,0.48,0.168,1.104c0.936-0.792,1.2-0.552,1.848-0.648c0.648-0.12,1.249-0.144,1.536-0.576
	c-0.575-0.792-0.144-1.32-0.527-1.992c-0.553-0.96-0.96-0.648-0.937-1.393c0.024-0.768-0.191-1.272-1.08-1.344
	c-0.912-0.096-0.912-0.624-1.392-0.864c-0.504-0.24-0.96-0.312-1.704-0.048c-0.72,0.24-0.816,0.648-1.392,0.648
	c-0.552,0-1.296,0.24-1.632,0.648c-0.312,0.408-0.24,0.816-0.48,1.152c-0.24,0.336-1.152,0.816-1.152,1.56s0.072,0.576,0.168,1.32
	c0.072,0.72-0.912,1.128-0.816,1.873c0.072,0.744,0.648,1.488,0.648,2.136c0,0.648-0.48,1.152-0.408,1.896
	c0.072,0.72,0.72,1.464,0.576,2.28c-0.168,0.912-0.168,0.983-0.096,1.728c0.096,0.744,1.248,1.393,1.32,1.896
	c0.072,0.479,0.168,1.224,0.744,1.392c0.576,0.145,0.72-0.096,1.224,0.312c0.48,0.408,0.888,1.08,2.136,0.912
	c1.224-0.168,0.888-0.648,1.464-0.648s1.272,0.288,1.681-0.527c0.432-0.816,0.048-0.841,0.288-1.225
	c0.239-0.36,0.936-0.479,0.983-1.152c-0.096-0.624,0.672-1.344,0.36-1.943C47.625,53.917,46.809,53.678,46.256,53.197z"/>
<path fill="#FFFFFF" d="M57.705,46.861c0.433-0.408,0.505-1.056,0.673-1.392c0.264-0.528,0.792-0.432,0.936-1.128
	c0.072-0.384,0.145-0.936,0.624-1.368c0.48-0.432,0.097-0.912,0.48-1.488c0.408-0.6,0.815-0.912,0.815-1.344
	c-0.647-0.312-1.271-0.168-1.775,0c-0.505,0.168-0.961,0.432-1.44,0.312c-0.48-0.096-0.864-0.096-1.176,0
	c-0.456,0.456-0.744,0.96-1.057,1.728c-0.312,0.744-0.072,0.912-0.36,1.752c-0.144,0.432-0.695,0.936-0.983,1.417
	c-0.24,0.408-0.408,0.6-0.816,1.32c0-0.792-0.144-1.344-0.096-1.92c0.072-0.6,0.624-1.776,0.479-2.472
	c-0.168-0.696-0.479-1.705-0.432-2.304c-0.528,0.048-0.696,0.312-1.225,0.216c-0.552-0.12-0.911-0.288-1.392,0
	c-0.648,0.384-0.984,0-1.344,0.336c0.312,0.696,0.312,1.008,0.168,1.536c-0.168,0.552-0.336,1.128-0.336,1.872
	c0,0.768,0.647,1.824,0.432,2.641c-0.216,0.792-0.744,1.752-0.528,2.232s0.504,1.296,0.36,1.872c-0.168,0.6-0.601,1.728-0.433,2.376
	c0.145,0.624,0.696,1.487,0.648,1.968s-0.528,1.128-0.36,1.729c0.145,0.576,0.217,1.224,0.097,1.584
	c0.84,0.336,1.296,0.336,1.296,0.336c0.625,0,0.792-0.433,1.321-0.384c0.527,0.048,1.176,0.479,1.608,0.168
	c0.239-0.456-0.049-1.297-0.049-1.297c-0.071-0.216-0.216-0.527-0.096-1.104c0.12-0.504,0.36-0.816,0.264-1.296
	c-0.119-0.48-0.432-1.177-0.432-1.776c0-0.456,0.024-0.937,0.072-1.632c1.056,0.888,0.672,1.848,0.84,2.328
	c0.24,0.744,0.648,0.888,1.008,1.68c0.145,0.288,0.024,0.84,0.265,1.152c0.216,0.288,0.384,0.288,0.647,0.792
	c0.24,0.479,0.048,0.72,0.576,1.392c0.601,0.049,0.624-0.119,0.84-0.191c0.217-0.048,0.624,0.384,1.128,0.432
	c0.528,0.072,0.744-0.288,1.152-0.359c0.384-0.049,0.769,0.191,1.009-0.12c-0.288-0.408,0.023-0.576-0.288-1.128
	c-0.288-0.528-0.696-0.841-0.912-1.2c-0.192-0.36,0-0.792-0.385-1.393c-0.384-0.624-0.768-0.744-1.032-1.344
	c-0.264-0.601-0.168-0.96-0.336-1.513c-0.144-0.456-0.815-0.744-0.744-1.632c0.024-0.408-0.264-0.48-0.647-1.176
	c-0.336-0.6-0.072-0.936,0.023-1.224C56.865,47.533,57.273,47.293,57.705,46.861z"/>
<path fill="#FFFFFF" d="M72.369,49.933c0-0.672,0.48-1.152,0.408-1.896c-0.096-0.744-0.624-1.272-0.48-2.088
	c0.049-0.36,0.36-0.984,0.192-1.32c-0.576-0.768,0.072-0.888-0.312-1.536c-0.552-0.984-0.96-0.648-0.936-1.416
	c0.023-0.744-0.504-1.152-1.393-1.224c-0.912-0.096-0.912-0.624-1.392-0.864c-0.504-0.24-0.96-0.312-1.704-0.048
	c-0.744,0.24-0.816,0.648-1.393,0.648s-1.296,0.24-1.632,0.648c-0.336,0.408-0.24,0.816-0.504,1.152
	c-0.24,0.336-1.128,0.816-1.128,1.56s0.071,0.576,0.168,1.32c0.071,0.72-0.912,1.128-0.841,1.873
	c0.097,0.744,0.673,1.488,0.673,2.136c0,0.648-0.504,1.152-0.408,1.896c0.072,0.72,0.72,1.464,0.576,2.28
	c-0.168,0.912-0.168,0.983-0.097,1.728c0.097,0.744,1.225,1.393,1.32,1.896c0.072,0.479,0.168,1.248,0.721,1.392
	c0.575,0.168,0.743-0.096,1.248,0.312c0.479,0.408,0.888,1.08,2.111,0.912c1.225-0.168,0.912-0.648,1.488-0.648
	s1.272,0.288,1.681-0.527c0.408-0.816,0.023-0.841,0.264-1.225c0.24-0.36,0.96-0.479,1.008-1.152
	c-0.096-0.624,0.505-0.888,0.385-1.943c-0.072-0.744,0.695-1.009,0.624-1.729C72.945,51.325,72.369,50.582,72.369,49.933z
	 M68.697,49.357c0.144,0.48-0.168,0.816,0.216,1.488c0.384,0.672,0.168,1.152-0.024,1.728c-0.191,0.6-0.12,1.176-0.264,1.536
	c-0.145,0.384-0.672,0.288-0.433,0.84c-0.264,0.648-0.72,0.601-1.296,0.312c-0.456-0.216-0.96-0.648-0.72-1.536
	c0.264-0.912,0.072-0.84-0.168-1.32c-0.264-0.504-0.648-1.224-0.552-1.632c0.071-0.408,0.312-0.84,0.168-1.32
	c-0.168-0.504,0.647-0.816,0.239-1.464c-0.407-0.672-0.504-0.912-0.336-1.488s0.816-0.816,0.648-1.488
	c-0.168-0.648-0.168-1.032,0.504-1.536c0.648-0.48,1.536-0.504,1.512,0.504c0.169,0.552,0.433,0.768,0.312,1.104
	c-0.288,0.888-0.096,0.816,0.12,1.296c0.24,0.504,0.624,1.272,0.528,1.68C69.057,48.469,68.553,48.853,68.697,49.357z"/>
<path fill="#FFFFFF" d="M84.97,41.365c0.096-0.576,0.384-0.912,0.168-1.32c-0.816-0.336-1.344-0.168-1.776,0
	c-0.432,0.144-0.744,0.408-1.271,0.312c-0.553-0.12-0.912-0.12-1.2,0c0.071,0.528-0.24,0.96-0.192,1.704
	c0.072,0.768,0.264,1.176,0.384,2.016c0.048,0.432-0.24,0.936-0.288,1.416c-0.071,0.48,0.145,0.984,0.265,1.272
	c0.168,0.36,0.264,0.648,0.216,1.128c-0.048,0.408-0.601,0.792-0.456,1.296c0.144,0.504-0.168,0.84,0.216,1.512
	s-0.12,1.152-0.288,1.704c-0.168,0.576,0.168,1.104,0.048,1.464c-0.12,0.36-0.84,0.336-0.647,0.864
	c-0.217,0.648-0.648,0.744-1.128,0.48c-0.408-0.217-0.961-0.744-0.769-1.633c0.216-0.888-0.144-0.792-0.384-1.271
	c-0.265-0.504-0.384-1.297-0.288-1.704c0.072-0.408,0.191-0.648,0.264-1.152c0.048-0.384-0.168-0.912-0.288-1.68
	c-0.048-0.384,0.456-0.984,0.408-1.368c-0.12-0.792-0.432-1.176-0.384-1.776c0.048-0.576,0.647-1.752,0.479-2.448
	c-0.144-0.696-0.479-1.728-0.432-2.304c-0.528,0.048-0.696,0.312-1.224,0.216c-0.528-0.12-0.912-0.288-1.393,0
	c-0.648,0.36-0.96,0-1.344,0.312c0.336,0.696,0.336,1.032,0.168,1.561c-0.168,0.528-0.312,1.128-0.312,1.872
	s0.601,1.824,0.408,2.616c-0.216,0.816-0.744,1.776-0.528,2.256c0.216,0.48,0.553,1.296,0.384,1.873
	c-0.191,0.719,0.312,1.511,0.169,2.328c-0.169,0.889-0.169,0.984-0.097,1.704c0.097,0.744,1.248,1.393,1.32,1.896
	c0.072,0.479,0.168,1.224,0.744,1.392s0.72-0.071,1.224,0.336c0.48,0.408,1.32,1.057,2.545,0.889
	c1.248-0.168,0.912-0.648,1.488-0.648c0.575,0,1.128,0.168,1.8-0.479c0.288-0.265,0.192-0.841,0.432-1.2
	c0.24-0.384,0.937-0.553,0.984-1.225c-0.096-0.624,0.408-0.936,0.288-1.992c-0.096-0.744,0.384-0.936,0.456-1.68
	c0.048-0.648-0.384-1.008-0.336-1.488c0.048-0.384,0.096-0.432,0.144-1.056c0.024-0.6-0.407-1.32-0.456-1.632
	c-0.071-0.288,0.097-0.792,0.312-1.2c0.24-0.432,0.36-0.792,0.12-1.152c-0.265-0.36,0.264-0.528,0.071-1.224
	c-0.096-0.36-0.023-0.84,0.24-1.272C85.498,42.445,84.874,41.965,84.97,41.365z"/>
<path fill="#FFFFFF" d="M95.865,41.172c0-0.408,0.36-0.48,0.24-0.96c-0.433,0.12-0.552,0-0.96-0.12
	c-0.433-0.12-0.433,0.24-0.864,0.312c-0.408,0.048-0.312-0.024-0.792-0.216c-0.48-0.168-0.72,0.048-1.032,0.096
	c-0.288,0.072-0.72-0.12-1.08-0.168c-0.36-0.072-0.432,0.12-0.672,0.168c-0.24,0.072-0.384-0.096-0.816-0.168
	c-0.432-0.072-0.792,0.384-1.152,0.384c-0.359,0-0.647-0.216-1.008-0.24c-0.624-0.048-0.816,0.336-1.296,0.096
	c-0.312,0.408-0.024,0.624-0.024,0.864c0,0.24-0.12,0.48-0.239,0.84c-0.12,0.36,0.359,0.552,0.359,1.032s-0.359,0.672-0.24,1.224
	c0.408,0.168,0.505,0.096,1.032-0.072c0.576-0.192,0.576,0.288,0.937,0.168c0.36-0.12,0.647-0.384,1.008-0.192
	c0.048,0.408-0.191,0.84-0.24,1.32c-0.071,0.48,0.192,0.984,0.265,1.272c0.096,0.504-0.12,0.672-0.336,1.512
	c-0.217,0.864,0.479,1.224,0.479,1.512c0,0.312-0.336,0.624-0.384,1.032c-0.072,0.671,0.288,0.959,0.336,1.392
	c0.096,0.672-0.312,0.552-0.408,1.296c-0.096,0.72,0.48,0.96,0.456,1.752c-0.023,0.288-0.432,0.84-0.359,1.152
	c0.071,0.288,0.287,0.288,0.287,0.768c0.024,0.504-0.359,0.744-0.144,1.393c0.552,0.071,0.672-0.12,0.912-0.168
	c0.24-0.072,0.432,0.384,0.912,0.432c0.504,0.072,0.552-0.384,0.96-0.432c0.432-0.072,0.672,0.168,1.104-0.12
	c-0.072-0.433,0.048-0.433,0.023-0.984c-0.023-0.528-0.264-0.84-0.288-1.2c0-0.359,0.408-0.792,0.312-1.392
	c-0.072-0.601-0.384-0.721-0.336-1.345c0.048-0.6,0.312-0.96,0.432-1.512c0.096-0.528-0.264-0.72-0.288-1.392
	c0-0.36,0.168-0.48,0.216-1.08c0.049-0.624-0.407-1.344-0.479-1.632c-0.072-0.312,0.096-0.792,0.336-1.224
	c0.216-0.432,0.336-0.792,0.096-1.152s-0.12-0.552,0.12-1.2c0.36-0.072,0.552,0.168,0.912,0.168s0.432-0.432,0.72-0.432
	c0.312,0,0.553,0.312,1.032,0.144c0.12-0.384,0.24-0.648,0.048-1.008c-0.191-0.36,0.265-0.696,0.337-1.008
	C96.346,41.796,95.865,41.604,95.865,41.172z"/>
</svg>
