<?xml version="1.0" encoding="utf-8"?>
<!-- Generator: Adobe Illustrator 17.0.0, SVG Export Plug-In . SVG Version: 6.00 Build 0)  -->
<!DOCTYPE svg PUBLIC "-//W3C//DTD SVG 1.1//EN" "http://www.w3.org/Graphics/SVG/1.1/DTD/svg11.dtd">
<svg version="1.1" id="Layer_1" xmlns="http://www.w3.org/2000/svg" xmlns:xlink="http://www.w3.org/1999/xlink" x="0px" y="0px"
	 width="718.5px" height="790px" viewBox="0 0 718.5 790" enable-background="new 0 0 718.5 790" xml:space="preserve">
<path fill="#FF0000" d="M0.758-0.102v0.204v636.146v4.632v2.679v1.793v1.411v1.164c6.157,3.99,13.026,7.429,20.154,10.059
	c41.876,15.441-10.855,82.145,31.14,87.59c39.13,5.072-14.263-74.041,44.329-72.114c46.908,1.54,23.621,47.676,43.698,49.572
	c20.079,1.894,17.717-29.613,29.253-43.259c6.57-7.776,25.763-7.908,31.081,0.711c16.139,26.175-11.824,92.171,19.578,93.633
	c30.413,1.417-2.81-78.343,24.405-91.582c21.413-10.418,2.604,57.168,26.512,55.678c24.768-1.545,11.475-52.481,36.27-51.47
	c16.111,0.655-0.668,54.658,14.258,51.411c14.933-3.252,0.919-20.793,12.969-20.802c32.742-0.026-8.257,77.783,24.015,72.378
	c35.288-5.906-5.011-101.589,27.664-100.707c32.676,0.876-10.416,88.299,20.065,86.68c26.056-1.386-9.831-90.004,16.832-91.162
	c12.402-0.541,8.763,22.472,8.849,30.58c0.302,29.233,22.631,31.461,25.874-2.677c3.544-37.326,22.751-50.081,42.512-9.308
	c27.438,56.596,61.576-4.487,88.428-6.084c23.612-1.404,0.177,44.291,23.779,45.834c25.891,1.69,2.597-39.784,28.403-42.419
	c21.415-2.191,0.404,58.519,21.58,62.331c31.25,5.627,8.444-65.494,28.497-86.184c7.972-8.218,17.095-7.576,26.741-3.52v-0.998
	V670.9v-1.527v-2.123v-3.533V-0.102H0.758z"/>
</svg>
