<?xml version="1.0" encoding="utf-8"?>
<!-- Generator: Adobe Illustrator 17.0.0, SVG Export Plug-In . SVG Version: 6.00 Build 0)  -->
<!DOCTYPE svg PUBLIC "-//W3C//DTD SVG 1.1//EN" "http://www.w3.org/Graphics/SVG/1.1/DTD/svg11.dtd">
<svg version="1.1" id="Layer_1" xmlns="http://www.w3.org/2000/svg" xmlns:xlink="http://www.w3.org/1999/xlink" x="0px" y="0px"
	 width="50px" height="20px" viewBox="0 0 50 20" enable-background="new 0 0 50 20" xml:space="preserve">
<path fill="#FF0000" d="M43.251,3.827c0,4.502,0,8.981,0,13.488c-7.778,0-15.537,0-23.323,0c0-4.501,0-8.98,0-13.488
	C27.709,3.827,35.467,3.827,43.251,3.827z"/>
<path fill="#FF0000" d="M19.055,17.283c-1.07-0.068-2.104-0.108-3.134-0.203c-2.269-0.209-4.5-0.621-6.632-1.452
	c-1.747-0.682-3.336-1.599-4.472-3.157c-0.328-0.45-0.432-0.932-0.504-1.492c-0.235-1.832,0.799-2.934,2.08-3.911
	c1.598-1.218,3.454-1.872,5.38-2.34c2.216-0.538,4.47-0.794,6.749-0.832c0.163-0.003,0.327,0,0.531,0
	C19.055,8.342,19.055,12.758,19.055,17.283z"/>
<path fill="#FF0000" d="M44.194,17.351c0-4.545,0-9.015,0-13.539c0.677,0,1.335-0.021,1.991,0.009
	c0.321,0.015,0.375,0.289,0.375,0.57c-0.003,1.13,0.001,2.26,0.001,3.389c0,2.937-0.001,5.875,0,8.812
	c0,0.662-0.09,0.755-0.755,0.758C45.281,17.353,44.757,17.351,44.194,17.351z"/>
</svg>
