<?xml version="1.0" encoding="utf-8"?>
<!-- Generator: Adobe Illustrator 17.0.0, SVG Export Plug-In . SVG Version: 6.00 Build 0)  -->
<!DOCTYPE svg PUBLIC "-//W3C//DTD SVG 1.1//EN" "http://www.w3.org/Graphics/SVG/1.1/DTD/svg11.dtd">
<svg version="1.1" xmlns="http://www.w3.org/2000/svg" xmlns:xlink="http://www.w3.org/1999/xlink" x="0px" y="0px" width="240px"
	 height="120px" viewBox="0 0 240 120" enable-background="new 0 0 240 120" xml:space="preserve">
<g id="Layer_1">
</g>
<g id="Layer_2">
	<g>
		<path fill="#FFFFFF" d="M130.535,56.003c-0.971,3.026-1.454,4.534-2.423,7.546c1.92-0.02,2.882-0.031,4.791-0.057
			C131.961,60.491,131.487,58.993,130.535,56.003z"/>
		<path fill="#FFFFFF" d="M138.265,88.241c-2.198-0.215-5.765,0-5.765,0v15.21c0,0,5.25,1.13,8-0.036s4.749-3.961,4.527-8.371
			S141.438,88.552,138.265,88.241z"/>
		<path fill="#FFFFFF" d="M108.849,88.673c-0.303-0.154-0.633-0.251-0.99-0.292c-0.357-0.041-0.688-0.06-0.99-0.059
			c-0.941,0.004-1.411,0.007-2.352,0.012c-0.002,1.934-0.003,2.901-0.005,4.835c0.776-0.007,1.164-0.011,1.941-0.017
			c0.33-0.003,0.695-0.034,1.093-0.093c0.399-0.059,0.771-0.181,1.115-0.366c0.344-0.185,0.633-0.44,0.867-0.766
			c0.234-0.325,0.351-0.755,0.351-1.291c0-0.535-0.096-0.958-0.289-1.268C109.399,89.059,109.152,88.827,108.849,88.673z"/>
		<path fill="#FFFFFF" d="M222.375,70.625c-1.75,0.25-2.875-0.057-2.875-0.057s2.125-0.568,3-0.818s1.625-1.328-0.125-0.789
			s-3.375,0.538-1.5-0.149s1.75-2.062-0.125-1.687S218.125,67,219.875,66s1.625-4.625-1-2.5s-4,4.5-4,4.5l-10.625,2.125
			c0,0-2-1-2-3.125s0.625-3.125,1.625-4.875s1.5-3.75,0.375-5.875l2.5-2c0,0,1.375-0.875,1.375-1.25s-1.875-1-2.375-1.875
			s-1-2.5,0.5-3.25s2.75-0.75,3.375,0s1.125,3.625,1.125,3.625s1.125-0.5,1.875-0.25s1.625,1,1.625,1L216.5,48
			c0,0,1,0.625,1.875,0.25S220,46.625,220.5,46.5s-1.125-0.25-1.125-1s0-2.625-1-4.375s-4-4.5-7.875-4.125s-6.875,4.125-8.25,5.5
			s-2.25,2.125-4.75,2.25c0,0-0.625-2.5-2.875-3.125l1.125-4.875l2.125,0.215l0.258-1.525l-2.508-0.065l0.5-3.952h-1.824L193,34.625
			l-1.75-0.125V36l1.75,0.25l0.5,5.25c0,0-2.625-0.75-5,0.5s-4.125,2.625-4.125,2.625s0.5-1.75,0-4.375s-4.625-5.375-6-6.375
			s-3.625-2.452-3.625-2.452s-0.5-3.798,1.125-5.673c0,0,2.125,1.5,3.875,1.5c0,0,3.125-2.375,4.25-6s2-6.625,0.625-10.75
			s-5.875-5-8.375-4.5c0,0-3.25,7.375-9.75,6.125l1,2c0,0-1.25,1.25-1.625,2.5v1.125l-1,0.125c0,0-0.25,0,0,0.875
			s-0.111,2.625-0.111,2.625s3.361,1.875,3.986,2.75s0.125,2.5-1.5,4l-1.417,1.208h-2.167c0,0-4.083-2.75-6-3
			c0,0,0-3.333-0.667-5.083s-1.917-3.25-3.333-3.5c-1.417-0.25-6.532,0.083-6.532,0.083l-0.551-3l-3.75-0.417L141.5,13l2.222-0.167
			l3.413-1.333l-1.218-0.917l1.667-1.167l-3.5-3.083l1.5-1h0.917l-1-2.417h-1.778c0,0-1.055-0.083-3.305,0.75
			c-2.25,0.833-3.583,2-4.75,4.583c-1.167,2.583-0.167,4.583,0,5.917c0.167,1.333,3.667,4.75,3.667,4.75s-4.583,1.667-6,2.5
			c-1.417,0.833-3.917,5.5-3.917,5.5s-5.583-0.167-7.333,0.333s-6.25,4.417-6.25,4.417l-4.667,0.25c0,0,0.675-0.167,1.337-1.75
			c0.663-1.583,0.579-5.167,0.579-5.167L115,24.75l0.25-1.417c0,0-1.333-1.167-3.167-1.167l0.421-2.75c0,0-0.087-1.75-3.004-1.833
			c-2.917-0.083-3.167,0.5-3.167,0.5l-0.917,1.417l-1.167,0.833l-0.917-0.083c0,0-1.417,0.917,1.25,3l-0.167,1.833l0.083,0.5
			l-0.667,0.333l0.25,1.167l0.083,1.083l-0.333,1.667l1.5,1l-0.25,1.583c0,0-2.5,0-4-1.25l0.833-3.833L102,25.417l0.667-0.167
			l-0.5-1l-1.583-0.833l-0.75,0.667l-6.167-1.417l-0.833,2L96,25.917l0.083,1.417l1.167,0.25l0.667,0.75l-0.167,2.083L90.417,34
			c0,0-6.75,1.25-9.083-4.333c0,0,8.583-1.333,7.5-9.417c0,0-1.472,3.083-6.069,1.417c0,0-1.181-1.333-1.431-5.333
			s-0.25-4.917-1.583-6.083c-1.333-1.167-3.833-1.667-5.833-1.417s-6.083,2.333-7.25,4.5c0,0-0.833,2.333,0,4l0.417,2
			c0,0-0.667,2.833-3.5,5.25l1.25,1.5c0,0-0.083,1.167-1.25,2.417l7.083,0.333c0,0-1.417,2.917-4.583,2.167
			c0,0-0.583,1.917,1.5,4.667c0,0-3.333,0.667-5.75,2.917c-2.417,2.25-3.583,4.695-3.583,4.695S57.167,43.25,56,42.833
			c-1.167-0.417-2.75-3.25-2.75-4.5s1.864-3.15,1.864-3.15l0.272,0.4c0,0-1.136,1-0.886,1.333c0.25,0.333,3.583-2,3.167-2.333
			c-0.417-0.333-1.833,0.5-1.833,0.5s0.75-0.75,0.667-1.417C56.417,33,55.386,33.75,55.386,33.75s0.864-1.083,0.698-1.417
			C55.917,32,55.386,32,55.386,32v-0.5c0,0,0.553-2.583,0-3.75c-0.552-1.167-2.136-2.667-2.136-2.667l-3.75,2.333
			c0,0,0.75,3.417,3,3.917s2.25,0.5,2.25,0.5s-1.917,1.417-2.667,2.833c-0.75,1.417-1.333,4.583-0.417,6.5
			c0.917,1.917,1.583,2.75,1.583,2.75s-1.167,0.056-2.583-0.639s-5-0.611-5-0.611S47,39,46.167,36.417
			c-0.833-2.583-1.917-3.583-1.917-3.583s-2.833,2.75-6.417,2.667c-3.583-0.083-5-3.583-4.417-5.917c0,0,2.667,2.083,4.667,1.417
			s4.583-1.583,4.75-2.917C43,26.75,41.25,20.5,35.5,18.833c0,0-4.75-1.25-7,0.167s-5.083,5.667-5.25,8.5
			c-0.167,2.833,0.75,7.583,0.917,8.333s0.25,3,0.25,3l0.667,1c0,0-4.75,5.583-5.667,11.167s-5.083,15.75-5.5,35.083
			S18.698,120,18.698,120h193.667c0,0,4.635-8.5,4.635-21.5s-9.5-24-9.5-24l9.5-3c0,0,2.125,1.625,3.375,1.5s3.375-1,3.75-1.5
			S224.125,70.375,222.375,70.625z M143.769,44.89c8.146-0.374,16.306-0.912,24.43-1.612c-0.013,3.688-0.058,5.532-0.162,9.219
			c-2.906,0.177-4.353,0.259-7.244,0.414c-0.227,7.616-0.497,15.237-0.552,22.857c-3.895,0.008-5.818,0.012-9.669,0.018
			c0.032-7.467,0.208-14.935,0.357-22.401c-2.882,0.123-4.322,0.179-7.207,0.279C143.755,50.154,143.769,48.399,143.769,44.89z
			 M125.404,45.516c4.225-0.087,6.338-0.146,10.562-0.299c3.891,10.131,7.53,20.35,11.167,30.574
			c-4.191,0.006-6.283,0.009-10.532,0.013c-0.609-1.798-0.912-2.695-1.52-4.487c-3.706,0.022-5.531-0.532-9.286-0.519
			c-0.585,1.783-0.943,3.236-1.527,5.016c-4.206,0.002-6.309,0.003-10.514,0.003C117.652,65.722,121.537,55.622,125.404,45.516z
			 M58.924,113.849c-3.854,0.477-5.781,0.737-9.63,1.296c0.138-7.81,0.208-11.711,0.346-19.502c-0.1-0.013-0.149-0.02-0.249-0.033
			c-2.214,7.951-8.91,21.726-8.91,21.726s-6.787-12.169-8.933-20.493c-0.083,0.007-0.124,0.01-0.207,0.017
			c0.172,8.491,0.258,12.727,0.429,21.18c-3.673,0.68-5.509,1.039-9.176,1.794c0-13.116,0-26.232,0-39.348c5.174,0,7.761,0,12.936,0
			c2.116,7.94,3.172,11.805,5.282,19.362c0.083-0.007,0.124-0.011,0.207-0.018c1.861-7.9,2.794-11.764,4.66-19.344
			c5.341,0,8.011,0,13.352,0C58.995,91.607,58.96,102.728,58.924,113.849z M56.872,66.541c-0.889-2.108-1.385-4.458-1.472-7.026
			c-0.089-2.599,0.25-4.935,1.025-6.988c0.774-2.054,1.875-3.771,3.296-5.153c1.42-1.382,3.113-2.395,5.067-3.052
			c1.954-0.657,4.045-0.907,6.27-0.77c2.28,0.141,4.436,0.653,6.466,1.528c2.031,0.876,3.728,1.987,5.093,3.344
			c-2.425,2.966-3.627,4.455-5.996,7.459c-0.562-0.779-1.258-1.382-2.092-1.811c-0.834-0.428-1.762-0.666-2.783-0.71
			c-0.828-0.036-1.599,0.085-2.31,0.363c-0.711,0.279-1.329,0.703-1.853,1.273c-0.523,0.571-0.926,1.276-1.206,2.112
			c-0.28,0.836-0.406,1.779-0.377,2.823c0.029,1.045,0.212,1.982,0.548,2.811c0.222,0.549,0.495,1.044,0.81,1.496l-0.884,3.205
			l2.782-1.41c0.163,0.096,0.332,0.184,0.505,0.263c0.713,0.325,1.464,0.495,2.252,0.509c1.113,0.021,2.067-0.212,2.861-0.696
			c0.795-0.484,1.419-1.057,1.873-1.72c2.43,3.119,3.629,4.659,6.02,7.716c-1.3,1.382-2.897,2.488-4.785,3.316
			c-1.889,0.828-4.03,1.247-6.431,1.247c-2.158,0-4.191-0.399-6.111-1.211c-1.919-0.812-3.603-1.971-5.054-3.483
			C58.932,70.463,57.761,68.65,56.872,66.541z M90.732,99.042c-0.004,1.813-0.306,3.512-0.906,5.108
			c-0.601,1.596-1.485,3.001-2.653,4.224c-1.168,1.223-2.621,2.228-4.357,3.022c-1.736,0.794-3.756,1.291-6.058,1.49
			c-2.303,0.199-4.306,0.048-6.008-0.48c-1.703-0.529-3.121-1.345-4.252-2.458c-1.132-1.113-1.973-2.488-2.522-4.121
			c-0.549-1.633-0.82-3.432-0.813-5.381c0.026-7.984,0.039-11.975,0.065-19.959c3.955,0,5.933,0,9.888,0
			c-0.023,7.267-0.034,10.901-0.057,18.168c-0.005,1.529,0.331,2.702,1.008,3.512c0.676,0.809,1.638,1.171,2.886,1.096
			c1.248-0.076,2.212-0.551,2.894-1.426c0.682-0.875,1.025-2.057,1.029-3.555c0.02-7.118,0.03-10.677,0.05-17.795
			c3.939,0,5.908,0,9.847,0C90.757,87.909,90.749,91.62,90.732,99.042z M84.645,75.802c-0.003-10.23-0.11-20.459-0.113-30.689
			c3.956,0.159,5.936,0.224,9.894,0.325c0.002,4.118,0.002,6.178,0.004,10.296c3.239,0.055,4.858,0.077,8.098,0.106
			c-0.001-4.098-0.001-6.146-0.002-10.244c3.992,0.054,5.987,0.066,9.979,0.061c0,10.054-0.001,20.107-0.001,30.161
			c-3.972,0-5.958,0-9.93-0.002c-0.001-4.593-0.001-6.889-0.002-11.482c-3.239-0.017-4.858-0.03-8.096-0.062
			c0.002,4.616,0.003,6.924,0.004,11.54C90.507,75.809,88.533,75.807,84.645,75.802z M110.521,110.421
			c-2.259-4.258-3.387-4.756-5.642-9.016c-0.116,0.002-0.174,0.002-0.29,0.004c-0.004,4.292-0.006,4.814-0.011,9.106
			c-3.85,0.086-5.775,0.15-9.625,0.318c0.019-10.116,0.038-20.232,0.057-30.347c5.069,0,7.603,0,12.672,0
			c1.44,0,2.874,0.148,4.3,0.444c1.426,0.296,2.702,0.817,3.823,1.563c1.122,0.746,2.03,1.748,2.723,3.003
			c0.693,1.254,1.04,2.828,1.041,4.717c0.001,1.833-0.441,3.444-1.326,4.836c-0.885,1.391-2.157,2.465-3.817,3.226
			c2.991,4.85,4.488,7.276,7.486,12.184C117.357,110.386,115.078,110.379,110.521,110.421z M151.103,103.136
			c-0.923,1.955-2.159,3.516-3.71,4.691c-1.55,1.175-3.338,1.998-5.362,2.487c-2.025,0.489-4.135,0.676-6.328,0.574
			c-4.732-0.219-7.098-0.298-11.832-0.394c-0.009-10.003-0.018-20.005-0.027-30.008c4.387,0,6.581,0,10.968,0
			c2.327,0,4.55,0.236,6.67,0.716c2.12,0.48,3.992,1.314,5.616,2.511c1.624,1.197,2.924,2.796,3.899,4.794
			c0.976,1.999,1.469,4.524,1.477,7.549C152.484,98.814,152.027,101.18,151.103,103.136z M155.851,112.272
			c-0.033-10.595-0.066-21.191-0.099-31.786c8.094,0,12.14,0,20.234,0c0.011,3.813,0.017,5.72,0.029,9.533
			c-0.285-0.011-9.947-0.348-10.926-0.379c0.002,0.492,0.01,3.07,0.019,5.92c1.021,0.16,2.045,0.182,3.05,0.061
			c1.016-0.122,2.017-0.389,3.046-0.366c1.029,0.023,2.123,0.372,2.944,1.315c0.378,0.434,0.694,1.011,0.778,1.652
			c0.083,0.641-0.473,1.801-1.742,1.503c-2.325-0.546-4.732-0.786-6.69,0.617c-0.498,0.357-0.951,0.804-1.365,1.313
			c0.004,1.217,0.007,2.12,0.008,2.409c1.347,0.109,11.306,1.014,11.63,1.046c0.011,3.824,0.017,5.736,0.029,9.56
			C168.427,113.515,164.237,113.036,155.851,112.272z M195.553,117.652c-2.253-5.717-3.788-7.275-6.048-12.69
			c-0.116-0.012-0.174-0.019-0.29-0.031c0.011,5.166,0.423,6.53,0.434,11.696c-3.828-0.639-5.743-0.937-9.576-1.494
			c-0.033-11.549-0.065-23.098-0.098-34.647c5.069,0,7.603,0,12.672,0c1.44,0,2.873,0.181,4.301,0.555
			c1.427,0.374,2.702,1.038,3.824,2.004c1.122,0.967,2.03,2.271,2.722,3.914c0.693,1.643,1.039,3.705,1.04,6.157
			c0.001,2.38-0.44,4.444-1.32,6.16c-0.881,1.715-2.147,2.959-3.798,3.736c2.984,6.477,4.473,9.831,7.441,16.823
			C202.339,118.904,200.079,118.467,195.553,117.652z"/>
		<path fill="#FFFFFF" d="M193.834,90.562c-0.302-0.205-0.632-0.342-0.988-0.41c-0.357-0.068-0.687-0.109-0.989-0.122
			c-0.939-0.042-1.409-0.063-2.349-0.104c0.005,2.327,0.007,3.49,0.012,5.817c0.774,0.054,1.161,0.082,1.935,0.138
			c0.329,0.024,0.693,0.016,1.091-0.025c0.397-0.04,0.768-0.16,1.11-0.361c0.342-0.201,0.63-0.493,0.864-0.878
			c0.233-0.384,0.348-0.909,0.347-1.572c-0.001-0.662-0.099-1.192-0.291-1.585C194.385,91.067,194.137,90.768,193.834,90.562z"/>
	</g>
</g>
</svg>
