<?xml version="1.0" encoding="utf-8"?>
<!-- Generator: Adobe Illustrator 17.0.0, SVG Export Plug-In . SVG Version: 6.00 Build 0)  -->
<!DOCTYPE svg PUBLIC "-//W3C//DTD SVG 1.1//EN" "http://www.w3.org/Graphics/SVG/1.1/DTD/svg11.dtd">
<svg version="1.1" id="Layer_1" xmlns="http://www.w3.org/2000/svg" xmlns:xlink="http://www.w3.org/1999/xlink" x="0px" y="0px"
	 width="100px" height="100px" viewBox="0 0 100 100" enable-background="new 0 0 100 100" xml:space="preserve">
<g>
	<path fill="#FF9900" d="M48.337,30.733c0.216,0,0.792-0.036,0.937-0.27c0.09-0.144,0.054-0.306-0.072-0.63l-0.522-1.296
		c-0.09-0.234-0.216-0.558-0.468-0.558s-0.378,0.342-0.45,0.63l-0.36,1.296c-0.071,0.234-0.071,0.432,0,0.558
		C47.545,30.715,48.103,30.733,48.337,30.733z"/>
	<path fill="#FF9900" d="M35.152,68.351c0,0-0.18,0.055-0.288,0.145c-0.144,0.126-0.198,1.566,0.036,1.765
		c0.108,0.09,0.342,0.107,0.342,0.107s1.8,0.145,1.8-1.17C37.042,67.991,35.152,68.351,35.152,68.351z"/>
	<path fill="#FF9900" d="M23.516,29.275c0,0,1.747,0.108,1.747-1.692c0-1.603-1.836-1.458-1.836-1.458s-0.252,0.018-0.342,0.126
		c-0.108,0.126-0.09,0.306-0.09,0.576v1.819c0,0.198,0,0.414,0.144,0.54C23.246,29.275,23.516,29.275,23.516,29.275z"/>
	<path fill="#FF9900" d="M76.374,68.351c0,0-0.181,0.055-0.288,0.145c-0.145,0.126-0.198,1.566,0.036,1.765
		c0.107,0.09,0.342,0.107,0.342,0.107s1.801,0.145,1.801-1.17C78.265,67.991,76.374,68.351,76.374,68.351z"/>
	<path fill="#FF9900" d="M56.096,47.598c-0.9,0-1.62,0.72-1.62,1.62c0,0.847,0.774,1.459,1.62,1.459
		c0.883,0,1.675-0.631,1.675-1.513C57.771,48.264,57.015,47.598,56.096,47.598z"/>
	<path fill="#FF9900" d="M90,0H10C4.477,0,0,4.477,0,10v80c0,5.523,4.477,10,10,10h80c5.523,0,10-4.477,10-10V10
		C100,4.477,95.523,0,90,0z M55.842,21.641c0.198-0.216,0.702-0.216,0.702-0.216s3.169-0.072,5.078-0.072
		c1.944,0,5.167,0.072,5.167,0.072s0.469-0.018,0.648,0.162c0.252,0.252,0.198,1.764,0.198,2.035c0,0.252,0.018,1.782-0.198,1.999
		c-0.18,0.18-0.648,0.162-0.648,0.162h-1.944c0,0-0.378-0.036-0.54,0.126c-0.126,0.126-0.108,0.684-0.108,0.684l0.09,6.32
		c0,0,0.036,0.486-0.162,0.684c-0.197,0.198-0.594,0.18-0.594,0.18s-1.225,0.036-2.017,0.036c-0.864,0-2.215-0.036-2.215-0.036
		s-0.378-0.018-0.504-0.144c-0.162-0.162-0.145-0.522-0.145-0.522l0.181-6.698c0,0,0.018-0.378-0.108-0.486
		c-0.126-0.108-0.432-0.09-0.432-0.09h-1.747c0,0-0.504-0.036-0.684-0.216c-0.271-0.234-0.217-1.71-0.217-1.999
		C55.644,23.369,55.608,21.893,55.842,21.641z M63.568,49.056c0,3.871-3.619,6.59-7.49,6.59c-3.728,0-7.473-2.755-7.473-6.536
		c0-3.854,3.89-6.266,7.743-6.266C60.003,42.845,63.568,45.347,63.568,49.056z M42.306,33.074c0,0,0.918-3.511,1.603-5.726
		c0.702-2.251,1.8-5.186,1.8-5.204c0.09-0.234,0.145-0.45,0.324-0.576s0.396-0.144,0.612-0.144c0,0,1.729-0.072,2.484-0.072
		c0.774,0,2.467,0.072,2.467,0.072c0.234,0,0.396,0,0.576,0.162c0.145,0.126,0.288,0.486,0.288,0.486s1.261,2.701,2.106,5.114
		c0.847,2.413,1.621,5.563,1.621,5.563s0.144,0.396,0.036,0.648c-0.072,0.144-0.307,0.252-0.414,0.27c0,0-1.495,0.324-2.305,0.432
		c-0.738,0.09-2.467,0.252-2.467,0.234c-0.271,0.036-0.469,0.018-0.595-0.072c-0.324-0.252-0.27-0.846-0.54-1.081
		c-0.126-0.108-0.288-0.072-0.288-0.072s-0.612,0.126-1.152,0.126c-0.432,0-0.99-0.144-0.99-0.144s-0.18-0.036-0.324,0.054
		c-0.234,0.162-0.216,0.864-0.414,1.026c-0.162,0.126-0.432,0.09-0.432,0.09s-1.152-0.072-1.765-0.144
		c-0.667-0.09-1.693-0.271-1.693-0.271s-0.36-0.054-0.468-0.18C42.234,33.506,42.234,33.326,42.306,33.074z M48.195,47.22
		c-0.18,0.18-0.648,0.162-0.648,0.162h-1.944c0,0-0.378-0.036-0.54,0.126c-0.126,0.126-0.108,0.684-0.108,0.684l0.09,6.32
		c0,0,0.036,0.486-0.162,0.685c-0.198,0.197-0.594,0.18-0.594,0.18s-1.225,0.036-2.017,0.036c-0.864,0-2.215-0.036-2.215-0.036
		s-0.378-0.018-0.504-0.145c-0.162-0.161-0.144-0.521-0.144-0.521l0.18-6.698c0,0,0.018-0.378-0.108-0.486
		c-0.126-0.107-0.432-0.09-0.432-0.09h-1.747c0,0-0.504-0.036-0.684-0.216c-0.27-0.234-0.216-1.711-0.216-1.999
		c0-0.252-0.036-1.729,0.198-1.98c0.198-0.216,0.702-0.216,0.702-0.216s3.169-0.072,5.078-0.072c1.945,0,5.167,0.072,5.167,0.072
		s0.469-0.019,0.648,0.162c0.252,0.252,0.198,1.765,0.198,2.034C48.393,45.473,48.411,47.004,48.195,47.22z M31.398,22.145
		c0,0,0-0.324,0.108-0.486c0.126-0.18,0.288-0.216,0.504-0.216c0,0,2.773-0.126,4.556-0.126c1.62,0,3.979,0.108,3.979,0.108
		s0.468-0.018,0.63,0.18c0.18,0.216,0.162,1.729,0.162,1.944c0,0.144,0.036,1.639-0.09,1.818c-0.126,0.18-0.432,0.198-0.648,0.198
		h-2.827c0,0-0.432,0-0.54,0.09c-0.108,0.108-0.126,0.829,0.018,0.973c0.09,0.09,0.504,0.072,0.504,0.072h2.683
		c0.216,0,0.468,0,0.612,0.18c0.126,0.144,0.18,1.26,0.036,1.477c-0.126,0.18-0.432,0.216-0.648,0.216h-2.665
		c0,0-0.468-0.018-0.558,0.072c-0.126,0.108-0.126,0.756,0,0.882c0.09,0.09,0.558,0.072,0.558,0.072h3.241
		c0.216,0,0.468,0,0.612,0.18c0.162,0.198,0.144,1.836,0.144,2.035c0,0.27,0,1.512-0.18,1.782c-0.144,0.216-0.63,0.198-0.63,0.198
		s-2.773,0.108-4.393,0.108c-1.783,0-4.556-0.126-4.556-0.126s-0.36,0-0.486-0.198c-0.108-0.162-0.108-0.306-0.108-0.504
		c0,0-0.126-3.727-0.126-5.834C31.29,24.377,31.398,22.145,31.398,22.145z M17.574,22.001c0-0.162,0.036-0.36,0.18-0.468
		c0.234-0.18,4.321-0.216,4.357-0.216c5.456,0,8.427,1.89,8.427,6.248c0,4.808-3.565,6.32-7.995,6.32
		c-2.629,0-4.069-0.144-4.069-0.144s-0.486,0-0.666-0.144s-0.234-0.306-0.234-0.576c0,0-0.09-3.241-0.09-5.438
		C17.484,25.476,17.574,22.001,17.574,22.001z M14.183,76.796c-0.144,0.216-0.667,0.197-0.667,0.197s-2.935,0.091-4.555,0.091
		c-1.783,0-4.555-0.108-4.555-0.108s-0.36,0-0.504-0.216c-0.072-0.108-0.09-0.486-0.09-0.486s-0.072-3.493-0.072-5.6
		c0-2.179,0.09-5.366,0.09-5.366s-0.036-0.414,0.162-0.576c0.162-0.107,0.36-0.107,0.648-0.107c0,0,1.242-0.054,2.035-0.054
		c0.792,0,2.035,0.054,2.035,0.054c0.324,0,0.468,0.018,0.684,0.234c0.162,0.162,0.162,0.432,0.162,0.684
		c0,0-0.036,1.98-0.036,3.241c0,1.278,0.036,3.277,0.036,3.277s0,0.396,0.09,0.485c0.09,0.091,0.522,0.091,0.522,0.091
		s0.972,0.035,1.584,0.035c0.702,0,1.782-0.035,1.782-0.035s0.45,0,0.594,0.161c0.198,0.217,0.18,1.873,0.18,2.071
		S14.327,76.579,14.183,76.796z M21.49,77.228c-3.493,0-6.572-1.998-6.572-6.122c0-2.179,0.126-5.636,0.126-5.636
		s-0.018-0.468,0.144-0.647c0.162-0.181,0.594-0.198,0.594-0.198s1.314-0.09,2.088-0.09c0.9,0,2.179,0.09,2.179,0.09
		s0.378,0,0.559,0.144c0.216,0.181,0.18,0.631,0.18,0.631s-0.036,1.729-0.036,2.826c0,1.081,0.054,2.755,0.054,2.755
		s-0.09,1.44,0.9,1.44c0.954,0,0.9-1.404,0.9-1.404s0.072-1.675,0.072-2.736c0-1.135-0.072-2.936-0.072-2.936
		s-0.036-0.323,0.126-0.504c0.18-0.198,0.576-0.216,0.576-0.216s1.26-0.072,2.052-0.072c0.63,0,1.675,0.072,1.675,0.072
		s0.234-0.019,0.468,0.126c0.252,0.162,0.234,0.648,0.234,0.648s0.126,2.809,0.126,5.743C27.864,76.039,24.335,77.228,21.49,77.228z
		 M41.292,72.744c0,0,0.522,1.116,0.81,1.782c0.306,0.703,0.684,1.639,0.684,1.639s0.144,0.307,0.09,0.505
		c-0.036,0.161-0.396,0.342-0.396,0.342s-0.756,0.432-1.872,0.774c-1.081,0.342-2.035,0.521-2.035,0.521s-0.415,0.108-0.576,0.019
		c-0.162-0.09-0.252-0.36-0.252-0.36l-1.494-3.871c-0.126-0.324-0.252-0.396-0.774-0.324c-0.558,0.072-0.684,0.162-0.684,0.486
		v2.017c0,0,0.018,0.342-0.09,0.486c-0.144,0.216-0.54,0.216-0.54,0.216s-1.224,0.09-1.999,0.09c-0.918,0-2.341-0.09-2.341-0.09
		s-0.468,0-0.648-0.126c-0.252-0.18-0.252-0.63-0.252-0.63s-0.09-3.422-0.09-5.618c0-2.467,0.09-5.348,0.09-5.348
		s-0.018-0.324,0.126-0.468c0.144-0.145,0.468-0.162,0.468-0.162s2.377-0.162,4.627-0.162c4.646,0,8.787,0.54,8.787,4.699
		c0,2.143-1.62,3.061-1.62,3.061C41.184,72.366,41.184,72.492,41.292,72.744z M57.547,76.922c0,0-0.99,0.521-1.837,0.792
		c-1.152,0.378-2.07,0.576-2.07,0.576s-0.378,0.072-0.576-0.018c-0.198-0.091-0.252-0.217-0.342-0.433c0,0-0.396-0.973-0.721-1.765
		c-0.342-0.846-0.9-2.143-0.9-2.143c-0.126-0.306-0.63-0.144-0.846,0c-0.343,0.216-0.469,0.252-0.469,0.738v1.62
		c0,0.198-0.018,0.324-0.144,0.486c-0.162,0.198-0.612,0.216-0.612,0.216s-1.206,0.055-1.98,0.055c-1.152,0-2.593-0.072-2.593-0.072
		s-0.396,0-0.504-0.216c-0.09-0.181-0.09-0.486-0.09-0.486s-0.09-3.277-0.09-5.384c0-2.179,0.108-5.582,0.108-5.582
		s-0.018-0.414,0.216-0.558c0.198-0.126,0.72-0.126,0.72-0.126s1.224-0.072,2.016-0.072c0.793,0,2.018,0.072,2.018,0.072
		s0.432-0.019,0.63,0.234c0.144,0.18,0.126,0.702,0.126,0.702l-0.019,1.332c0,0.216,0.055,0.414,0.234,0.522
		c0.198,0.107,0.612-0.234,0.9-0.522l2.305-2.322c0,0,0.342-0.415,0.504-0.415c0.198,0,0.396,0.108,0.396,0.108
		s0.792,0.378,1.639,1.026c1.026,0.774,1.71,1.566,1.71,1.566s0.288,0.288,0.288,0.45c0,0.18-0.09,0.324-0.216,0.45
		c0,0-0.612,0.666-1.08,1.152c-0.343,0.36-0.99,1.008-0.99,1.008s-0.324,0.253-0.324,0.45c0,0.072,0.126,0.343,0.198,0.486
		c0,0,0.756,1.513,1.206,2.467c0.522,1.099,1.351,2.845,1.351,2.845s0.144,0.217,0.144,0.414
		C57.853,76.777,57.547,76.922,57.547,76.922z M69.121,75.013c0,0.271,0,1.513-0.181,1.783c-0.144,0.216-0.63,0.197-0.63,0.197
		s-2.772,0.108-4.394,0.108c-1.782,0-4.555-0.126-4.555-0.126s-0.36,0-0.486-0.198c-0.108-0.162-0.108-0.306-0.108-0.504
		c0,0-0.126-3.728-0.126-5.834c0-2.862,0.108-5.096,0.108-5.096s0-0.323,0.107-0.485c0.126-0.181,0.288-0.217,0.505-0.217
		c0,0,2.772-0.126,4.555-0.126c1.621,0,3.979,0.108,3.979,0.108s0.468-0.019,0.63,0.18c0.181,0.217,0.162,1.729,0.162,1.945
		c0,0.144,0.036,1.638-0.09,1.818c-0.126,0.18-0.432,0.197-0.648,0.197h-2.826c0,0-0.433,0-0.541,0.091
		c-0.107,0.107-0.126,0.828,0.019,0.972c0.09,0.09,0.504,0.072,0.504,0.072h2.683c0.217,0,0.469,0,0.612,0.18
		c0.126,0.145,0.181,1.261,0.036,1.477c-0.126,0.181-0.432,0.217-0.648,0.217h-2.664c0,0-0.469-0.019-0.559,0.071
		c-0.126,0.108-0.126,0.757,0,0.883c0.09,0.09,0.559,0.071,0.559,0.071h3.24c0.217,0,0.469,0,0.612,0.181
		C69.139,73.177,69.121,74.815,69.121,75.013z M68.567,33.65c-0.162-0.144-0.162-0.504-0.162-0.504s-0.054-3.259-0.054-5.509
		c0-2.071,0.054-5.312,0.054-5.312s-0.035-0.522,0.253-0.738c0.197-0.162,0.737-0.162,0.737-0.162s1.261-0.072,2.053-0.072
		c0.793,0,2.017,0.072,2.017,0.072s0.36-0.018,0.576,0.162c0.198,0.162,0.162,0.648,0.162,0.648l-0.036,3.079
		c0,0-0.018,0.396,0.145,0.54c0.09,0.072,0.288,0.126,0.288,0.126s0.432,0.036,0.847,0.036c0.378,0,0.863-0.036,0.863-0.036
		s0.181-0.036,0.271-0.144c0.108-0.144,0.09-0.486,0.09-0.486l-0.018-3.025c0,0-0.054-0.594,0.252-0.774
		c0.216-0.126,0.738-0.126,0.738-0.126s1.278-0.072,2.07-0.072s2.035,0.072,2.035,0.072s0.359-0.018,0.576,0.162
		c0.162,0.126,0.162,0.648,0.162,0.648s0.035,2.521,0.035,5.24c0,2.125-0.035,5.438-0.035,5.438c0,0.144,0.018,0.468-0.072,0.666
		c-0.09,0.18-0.433,0.198-0.433,0.198s-1.422,0.072-2.322,0.072c-0.864,0-2.197-0.072-2.197-0.072s-0.504-0.018-0.63-0.126
		c-0.18-0.162-0.162-0.504-0.162-0.504v-3.385c0,0-0.018-0.36-0.071-0.45c-0.091-0.162-0.36-0.18-0.36-0.18
		s-0.433-0.018-0.811-0.018c-0.414,0-0.828,0.018-0.828,0.018s-0.234,0.018-0.324,0.126c-0.144,0.18-0.108,0.541-0.108,0.541
		l0.055,3.115c0,0.144,0,0.45-0.09,0.648c-0.091,0.18-0.414,0.216-0.414,0.216s-1.423,0.072-2.323,0.072
		c-0.864,0-2.196-0.072-2.196-0.072S68.712,33.776,68.567,33.65z M82.514,72.744c0,0,0.522,1.116,0.811,1.782
		c0.306,0.703,0.684,1.639,0.684,1.639s0.145,0.307,0.09,0.505c-0.036,0.161-0.396,0.342-0.396,0.342s-0.757,0.432-1.873,0.774
		c-1.08,0.342-2.034,0.521-2.034,0.521s-0.414,0.108-0.576,0.019s-0.252-0.36-0.252-0.36l-1.495-3.871
		c-0.126-0.324-0.252-0.396-0.773-0.324c-0.559,0.072-0.685,0.162-0.685,0.486v2.017c0,0,0.018,0.342-0.09,0.486
		c-0.145,0.216-0.54,0.216-0.54,0.216s-1.225,0.09-1.999,0.09c-0.918,0-2.341-0.09-2.341-0.09s-0.468,0-0.648-0.126
		c-0.252-0.18-0.252-0.63-0.252-0.63s-0.09-3.422-0.09-5.618c0-2.467,0.09-5.348,0.09-5.348s-0.018-0.324,0.126-0.468
		c0.145-0.145,0.469-0.162,0.469-0.162s2.376-0.162,4.627-0.162c4.646,0,8.787,0.54,8.787,4.699c0,2.143-1.621,3.061-1.621,3.061
		C82.405,72.366,82.405,72.492,82.514,72.744z M90.269,77.372c-2.088,0-4.771-0.612-4.771-0.612s-0.359-0.145-0.485-0.343
		c-0.198-0.323-0.181-1.836-0.181-2.088c0-0.324-0.09-1.675,0.307-1.891c0.197-0.108,0.576,0.036,0.576,0.036
		s1.854,1.044,3.259,1.044c0.432,0,0.937-0.18,0.937-0.54c0-0.612-1.152-0.792-2.251-1.333c-1.513-0.737-2.575-1.602-2.575-3.223
		c0-3.223,4.25-3.943,7.364-3.943c0.954,0,2.539,0.234,2.539,0.234s0.216,0,0.396,0.145c0.233,0.18,0.216,1.674,0.216,1.891
		c0,0.233,0.018,1.782-0.252,1.98c-0.126,0.09-0.324-0.019-0.324-0.019s-1.026-0.324-1.566-0.324c-0.793,0-1.099,0.234-1.099,0.559
		c0,0.414,0.828,0.685,1.639,1.044c1.513,0.666,2.521,1.765,2.521,3.331C96.517,75.841,93.51,77.372,90.269,77.372z"/>
	<path fill="#FFFFFF" stroke="#808285" stroke-width="0.5" stroke-miterlimit="10" d="M17.808,33.596
		c0.18,0.144,0.666,0.144,0.666,0.144s1.44,0.144,4.069,0.144c4.429,0,7.995-1.512,7.995-6.32c0-4.357-2.971-6.248-8.427-6.248
		c-0.036,0-4.123,0.036-4.357,0.216c-0.144,0.108-0.18,0.306-0.18,0.468c0,0-0.09,3.475-0.09,5.582c0,2.197,0.09,5.438,0.09,5.438
		C17.574,33.29,17.628,33.452,17.808,33.596z M22.994,26.826c0-0.27-0.018-0.45,0.09-0.576c0.09-0.108,0.342-0.126,0.342-0.126
		s1.836-0.144,1.836,1.458c0,1.801-1.747,1.692-1.747,1.692s-0.27,0-0.378-0.09c-0.144-0.126-0.144-0.342-0.144-0.54V26.826z"/>
	<path fill="#FFFFFF" stroke="#808285" stroke-width="0.5" stroke-miterlimit="10" d="M31.524,33.578
		c0.126,0.198,0.486,0.198,0.486,0.198s2.773,0.126,4.556,0.126c1.62,0,4.393-0.108,4.393-0.108s0.486,0.018,0.63-0.198
		c0.18-0.27,0.18-1.512,0.18-1.782c0-0.198,0.018-1.837-0.144-2.035c-0.145-0.18-0.396-0.18-0.612-0.18h-3.241
		c0,0-0.468,0.018-0.558-0.072c-0.126-0.126-0.126-0.774,0-0.882c0.09-0.09,0.558-0.072,0.558-0.072h2.665
		c0.216,0,0.522-0.036,0.648-0.216c0.144-0.216,0.09-1.333-0.036-1.477c-0.145-0.18-0.396-0.18-0.612-0.18h-2.683
		c0,0-0.414,0.018-0.504-0.072c-0.144-0.144-0.126-0.864-0.018-0.973c0.108-0.09,0.54-0.09,0.54-0.09h2.827
		c0.216,0,0.522-0.018,0.648-0.198c0.126-0.18,0.09-1.674,0.09-1.818c0-0.216,0.018-1.729-0.162-1.944
		c-0.162-0.198-0.63-0.18-0.63-0.18s-2.359-0.108-3.979-0.108c-1.783,0-4.556,0.126-4.556,0.126c-0.216,0-0.378,0.036-0.504,0.216
		c-0.108,0.162-0.108,0.486-0.108,0.486s-0.108,2.232-0.108,5.095c0,2.107,0.126,5.834,0.126,5.834
		C31.416,33.272,31.416,33.417,31.524,33.578z"/>
	<path fill="#FFFFFF" stroke="#808285" stroke-width="0.5" stroke-miterlimit="10" d="M42.846,33.848c0,0,1.026,0.18,1.693,0.271
		c0.612,0.072,1.765,0.144,1.765,0.144s0.27,0.036,0.432-0.09c0.198-0.162,0.18-0.864,0.414-1.026
		c0.145-0.09,0.324-0.054,0.324-0.054s0.559,0.144,0.99,0.144c0.54,0,1.152-0.126,1.152-0.126s0.162-0.036,0.288,0.072
		c0.271,0.234,0.216,0.828,0.54,1.081c0.126,0.09,0.324,0.108,0.595,0.072c0,0.018,1.729-0.144,2.467-0.234
		c0.81-0.108,2.305-0.432,2.305-0.432c0.107-0.018,0.342-0.126,0.414-0.27c0.107-0.252-0.036-0.648-0.036-0.648
		s-0.774-3.151-1.621-5.563c-0.846-2.413-2.106-5.114-2.106-5.114s-0.144-0.36-0.288-0.486c-0.18-0.162-0.342-0.162-0.576-0.162
		c0,0-1.693-0.072-2.467-0.072c-0.756,0-2.484,0.072-2.484,0.072c-0.216,0-0.433,0.018-0.612,0.144s-0.234,0.342-0.324,0.576
		c0,0.018-1.098,2.953-1.8,5.204c-0.684,2.214-1.603,5.726-1.603,5.726c-0.072,0.252-0.072,0.432,0.072,0.594
		C42.486,33.794,42.846,33.848,42.846,33.848z M47.401,29.905l0.36-1.296c0.072-0.288,0.198-0.63,0.45-0.63s0.378,0.324,0.468,0.558
		l0.522,1.296c0.126,0.324,0.162,0.486,0.072,0.63c-0.145,0.234-0.721,0.27-0.937,0.27c-0.234,0-0.792-0.018-0.937-0.27
		C47.33,30.337,47.33,30.139,47.401,29.905z"/>
	<path fill="#FFFFFF" stroke="#808285" stroke-width="0.5" stroke-miterlimit="10" d="M55.86,25.62
		c0.18,0.18,0.684,0.216,0.684,0.216h1.747c0,0,0.306-0.018,0.432,0.09c0.126,0.108,0.108,0.486,0.108,0.486L58.65,33.11
		c0,0-0.018,0.36,0.145,0.522c0.126,0.126,0.504,0.144,0.504,0.144s1.351,0.036,2.215,0.036c0.792,0,2.017-0.036,2.017-0.036
		s0.396,0.018,0.594-0.18c0.198-0.198,0.162-0.684,0.162-0.684l-0.09-6.32c0,0-0.018-0.558,0.108-0.684
		c0.162-0.162,0.54-0.126,0.54-0.126h1.944c0,0,0.469,0.018,0.648-0.162c0.216-0.216,0.198-1.747,0.198-1.999
		c0-0.271,0.054-1.783-0.198-2.035c-0.18-0.18-0.648-0.162-0.648-0.162s-3.223-0.072-5.167-0.072c-1.909,0-5.078,0.072-5.078,0.072
		s-0.504,0-0.702,0.216c-0.233,0.252-0.198,1.729-0.198,1.981C55.644,23.91,55.59,25.386,55.86,25.62z"/>
	<path fill="#FFFFFF" stroke="#808285" stroke-width="0.5" stroke-miterlimit="10" d="M73.718,33.776c0,0,0.323-0.036,0.414-0.216
		c0.09-0.198,0.09-0.504,0.09-0.648l-0.055-3.115c0,0-0.035-0.36,0.108-0.541c0.09-0.108,0.324-0.126,0.324-0.126
		s0.414-0.018,0.828-0.018c0.378,0,0.811,0.018,0.811,0.018s0.27,0.018,0.36,0.18c0.054,0.09,0.071,0.45,0.071,0.45v3.385
		c0,0-0.018,0.342,0.162,0.504c0.126,0.108,0.63,0.126,0.63,0.126s1.333,0.072,2.197,0.072c0.9,0,2.322-0.072,2.322-0.072
		s0.343-0.018,0.433-0.198c0.09-0.198,0.072-0.522,0.072-0.666c0,0,0.035-3.313,0.035-5.438c0-2.719-0.035-5.24-0.035-5.24
		s0-0.522-0.162-0.648c-0.217-0.18-0.576-0.162-0.576-0.162s-1.243-0.072-2.035-0.072s-2.07,0.072-2.07,0.072s-0.522,0-0.738,0.126
		c-0.306,0.18-0.252,0.774-0.252,0.774l0.018,3.025c0,0,0.019,0.342-0.09,0.486c-0.09,0.108-0.271,0.144-0.271,0.144
		s-0.485,0.036-0.863,0.036c-0.415,0-0.847-0.036-0.847-0.036s-0.198-0.054-0.288-0.126c-0.162-0.144-0.145-0.54-0.145-0.54
		l0.036-3.079c0,0,0.036-0.486-0.162-0.648c-0.216-0.18-0.576-0.162-0.576-0.162s-1.224-0.072-2.017-0.072
		c-0.792,0-2.053,0.072-2.053,0.072s-0.54,0-0.737,0.162c-0.288,0.216-0.253,0.738-0.253,0.738s-0.054,3.241-0.054,5.312
		c0,2.25,0.054,5.509,0.054,5.509s0,0.36,0.162,0.504c0.145,0.126,0.631,0.126,0.631,0.126s1.332,0.072,2.196,0.072
		C72.295,33.848,73.718,33.776,73.718,33.776z"/>
	<path fill="#FFFFFF" stroke="#808285" stroke-width="0.5" stroke-miterlimit="10" d="M48.195,43.187
		c-0.18-0.181-0.648-0.162-0.648-0.162s-3.223-0.072-5.167-0.072c-1.909,0-5.078,0.072-5.078,0.072s-0.504,0-0.702,0.216
		c-0.234,0.252-0.198,1.729-0.198,1.98c0,0.288-0.054,1.765,0.216,1.999c0.18,0.18,0.684,0.216,0.684,0.216h1.747
		c0,0,0.306-0.018,0.432,0.09c0.126,0.108,0.108,0.486,0.108,0.486l-0.18,6.698c0,0-0.018,0.36,0.144,0.521
		c0.126,0.127,0.504,0.145,0.504,0.145s1.351,0.036,2.215,0.036c0.792,0,2.017-0.036,2.017-0.036s0.396,0.018,0.594-0.18
		c0.198-0.198,0.162-0.685,0.162-0.685l-0.09-6.32c0,0-0.018-0.558,0.108-0.684c0.162-0.162,0.54-0.126,0.54-0.126h1.944
		c0,0,0.469,0.018,0.648-0.162c0.216-0.216,0.198-1.747,0.198-1.999C48.393,44.952,48.447,43.439,48.195,43.187z"/>
	<path fill="#FFFFFF" stroke="#808285" stroke-width="0.5" stroke-miterlimit="10" d="M56.348,42.845
		c-3.853,0-7.743,2.412-7.743,6.266c0,3.781,3.746,6.536,7.473,6.536c3.871,0,7.49-2.72,7.49-6.59
		C63.568,45.347,60.003,42.845,56.348,42.845z M56.096,50.677c-0.846,0-1.62-0.612-1.62-1.459c0-0.9,0.72-1.62,1.62-1.62
		c0.919,0,1.675,0.666,1.675,1.566C57.771,50.046,56.979,50.677,56.096,50.677z"/>
	<path fill="#FFFFFF" stroke="#808285" stroke-width="0.5" stroke-miterlimit="10" d="M14.129,72.798
		c-0.144-0.161-0.594-0.161-0.594-0.161s-1.08,0.035-1.782,0.035c-0.612,0-1.584-0.035-1.584-0.035s-0.432,0-0.522-0.091
		c-0.09-0.09-0.09-0.485-0.09-0.485S9.52,70.062,9.52,68.783c0-1.261,0.036-3.241,0.036-3.241c0-0.252,0-0.521-0.162-0.684
		c-0.216-0.217-0.36-0.234-0.684-0.234c0,0-1.243-0.054-2.035-0.054c-0.792,0-2.035,0.054-2.035,0.054c-0.288,0-0.486,0-0.648,0.107
		c-0.198,0.162-0.162,0.576-0.162,0.576s-0.09,3.188-0.09,5.366c0,2.106,0.072,5.6,0.072,5.6s0.018,0.378,0.09,0.486
		c0.144,0.216,0.504,0.216,0.504,0.216s2.772,0.108,4.555,0.108c1.621,0,4.555-0.091,4.555-0.091s0.522,0.019,0.667-0.197
		c0.144-0.217,0.126-1.729,0.126-1.927S14.327,73.015,14.129,72.798z"/>
	<path fill="#FFFFFF" stroke="#808285" stroke-width="0.5" stroke-miterlimit="10" d="M27.504,64.75
		c-0.234-0.145-0.468-0.126-0.468-0.126s-1.044-0.072-1.675-0.072c-0.792,0-2.052,0.072-2.052,0.072s-0.396,0.018-0.576,0.216
		c-0.162,0.181-0.126,0.504-0.126,0.504s0.072,1.801,0.072,2.936c0,1.062-0.072,2.736-0.072,2.736s0.054,1.404-0.9,1.404
		c-0.99,0-0.9-1.44-0.9-1.44s-0.054-1.674-0.054-2.755c0-1.098,0.036-2.826,0.036-2.826s0.036-0.45-0.18-0.631
		c-0.18-0.144-0.559-0.144-0.559-0.144s-1.278-0.09-2.179-0.09c-0.774,0-2.088,0.09-2.088,0.09s-0.432,0.018-0.594,0.198
		c-0.162,0.18-0.144,0.647-0.144,0.647s-0.126,3.457-0.126,5.636c0,4.124,3.079,6.122,6.572,6.122c2.845,0,6.374-1.188,6.374-6.086
		c0-2.935-0.126-5.743-0.126-5.743S27.756,64.912,27.504,64.75z"/>
	<path fill="#FFFFFF" stroke="#808285" stroke-width="0.5" stroke-miterlimit="10" d="M42.93,69.161
		c0-4.159-4.141-4.699-8.787-4.699c-2.25,0-4.627,0.162-4.627,0.162s-0.324,0.018-0.468,0.162c-0.144,0.144-0.126,0.468-0.126,0.468
		s-0.09,2.881-0.09,5.348c0,2.196,0.09,5.618,0.09,5.618s0,0.45,0.252,0.63c0.18,0.126,0.648,0.126,0.648,0.126
		s1.422,0.09,2.341,0.09c0.774,0,1.999-0.09,1.999-0.09s0.396,0,0.54-0.216c0.108-0.145,0.09-0.486,0.09-0.486v-2.017
		c0-0.324,0.126-0.414,0.684-0.486c0.522-0.072,0.648,0,0.774,0.324l1.494,3.871c0,0,0.09,0.271,0.252,0.36
		c0.162,0.09,0.576-0.019,0.576-0.019s0.954-0.18,2.035-0.521c1.116-0.343,1.872-0.774,1.872-0.774s0.36-0.181,0.396-0.342
		c0.054-0.198-0.09-0.505-0.09-0.505s-0.378-0.936-0.684-1.639c-0.288-0.666-0.81-1.782-0.81-1.782
		c-0.108-0.252-0.108-0.378,0.018-0.522C41.31,72.222,42.93,71.304,42.93,69.161z M35.242,70.367c0,0-0.234-0.018-0.342-0.107
		c-0.234-0.198-0.18-1.639-0.036-1.765c0.108-0.09,0.288-0.145,0.288-0.145s1.891-0.359,1.891,0.847
		C37.042,70.512,35.242,70.367,35.242,70.367z"/>
	<path fill="#FFFFFF" stroke="#808285" stroke-width="0.5" stroke-miterlimit="10" d="M56.358,73.32
		c-0.45-0.954-1.206-2.467-1.206-2.467c-0.072-0.144-0.198-0.414-0.198-0.486c0-0.197,0.324-0.45,0.324-0.45s0.647-0.647,0.99-1.008
		c0.468-0.486,1.08-1.152,1.08-1.152c0.126-0.126,0.216-0.271,0.216-0.45c0-0.162-0.288-0.45-0.288-0.45s-0.684-0.792-1.71-1.566
		c-0.847-0.648-1.639-1.026-1.639-1.026s-0.198-0.108-0.396-0.108c-0.162,0-0.504,0.415-0.504,0.415l-2.305,2.322
		c-0.288,0.288-0.702,0.63-0.9,0.522c-0.18-0.108-0.234-0.307-0.234-0.522l0.019-1.332c0,0,0.018-0.522-0.126-0.702
		c-0.198-0.253-0.63-0.234-0.63-0.234s-1.225-0.072-2.018-0.072c-0.792,0-2.016,0.072-2.016,0.072s-0.522,0-0.72,0.126
		c-0.234,0.144-0.216,0.558-0.216,0.558s-0.108,3.403-0.108,5.582c0,2.106,0.09,5.384,0.09,5.384s0,0.306,0.09,0.486
		c0.108,0.216,0.504,0.216,0.504,0.216s1.44,0.072,2.593,0.072c0.774,0,1.98-0.055,1.98-0.055s0.45-0.018,0.612-0.216
		c0.126-0.162,0.144-0.288,0.144-0.486v-1.62c0-0.486,0.126-0.522,0.469-0.738c0.216-0.144,0.72-0.306,0.846,0
		c0,0,0.559,1.297,0.9,2.143c0.324,0.792,0.721,1.765,0.721,1.765c0.09,0.216,0.144,0.342,0.342,0.433
		c0.198,0.09,0.576,0.018,0.576,0.018s0.918-0.198,2.07-0.576c0.847-0.271,1.837-0.792,1.837-0.792s0.306-0.145,0.306-0.343
		c0-0.197-0.144-0.414-0.144-0.414S56.881,74.419,56.358,73.32z"/>
	<path fill="#FFFFFF" stroke="#808285" stroke-width="0.5" stroke-miterlimit="10" d="M68.364,72.798h-3.24
		c0,0-0.469,0.019-0.559-0.071c-0.126-0.126-0.126-0.774,0-0.883c0.09-0.09,0.559-0.071,0.559-0.071h2.664
		c0.217,0,0.522-0.036,0.648-0.217c0.145-0.216,0.09-1.332-0.036-1.477c-0.144-0.18-0.396-0.18-0.612-0.18h-2.683
		c0,0-0.414,0.018-0.504-0.072c-0.145-0.144-0.126-0.864-0.019-0.972c0.108-0.091,0.541-0.091,0.541-0.091h2.826
		c0.217,0,0.522-0.018,0.648-0.197c0.126-0.181,0.09-1.675,0.09-1.818c0-0.217,0.019-1.729-0.162-1.945
		c-0.162-0.198-0.63-0.18-0.63-0.18s-2.358-0.108-3.979-0.108c-1.782,0-4.555,0.126-4.555,0.126c-0.217,0-0.379,0.036-0.505,0.217
		c-0.107,0.162-0.107,0.485-0.107,0.485s-0.108,2.233-0.108,5.096c0,2.106,0.126,5.834,0.126,5.834c0,0.198,0,0.342,0.108,0.504
		c0.126,0.198,0.486,0.198,0.486,0.198s2.772,0.126,4.555,0.126c1.621,0,4.394-0.108,4.394-0.108s0.486,0.019,0.63-0.197
		c0.181-0.271,0.181-1.513,0.181-1.783c0-0.197,0.018-1.836-0.145-2.034C68.833,72.798,68.581,72.798,68.364,72.798z"/>
	<path fill="#FFFFFF" stroke="#808285" stroke-width="0.5" stroke-miterlimit="10" d="M84.152,69.161
		c0-4.159-4.142-4.699-8.787-4.699c-2.251,0-4.627,0.162-4.627,0.162s-0.324,0.018-0.469,0.162
		c-0.144,0.144-0.126,0.468-0.126,0.468s-0.09,2.881-0.09,5.348c0,2.196,0.09,5.618,0.09,5.618s0,0.45,0.252,0.63
		c0.181,0.126,0.648,0.126,0.648,0.126s1.423,0.09,2.341,0.09c0.774,0,1.999-0.09,1.999-0.09s0.396,0,0.54-0.216
		c0.107-0.145,0.09-0.486,0.09-0.486v-2.017c0-0.324,0.126-0.414,0.685-0.486c0.521-0.072,0.647,0,0.773,0.324l1.495,3.871
		c0,0,0.09,0.271,0.252,0.36s0.576-0.019,0.576-0.019s0.954-0.18,2.034-0.521c1.116-0.343,1.873-0.774,1.873-0.774
		s0.359-0.181,0.396-0.342c0.055-0.198-0.09-0.505-0.09-0.505s-0.378-0.936-0.684-1.639c-0.288-0.666-0.811-1.782-0.811-1.782
		c-0.108-0.252-0.108-0.378,0.018-0.522C82.531,72.222,84.152,71.304,84.152,69.161z M76.464,70.367c0,0-0.234-0.018-0.342-0.107
		c-0.234-0.198-0.181-1.639-0.036-1.765c0.107-0.09,0.288-0.145,0.288-0.145s1.891-0.359,1.891,0.847
		C78.265,70.512,76.464,70.367,76.464,70.367z"/>
	<path fill="#FFFFFF" stroke="#808285" stroke-width="0.5" stroke-miterlimit="10" d="M93.996,69.989
		c-0.811-0.359-1.639-0.63-1.639-1.044c0-0.324,0.306-0.559,1.099-0.559c0.54,0,1.566,0.324,1.566,0.324s0.198,0.108,0.324,0.019
		c0.27-0.198,0.252-1.747,0.252-1.98c0-0.217,0.018-1.711-0.216-1.891c-0.181-0.145-0.396-0.145-0.396-0.145
		s-1.585-0.234-2.539-0.234c-3.114,0-7.364,0.721-7.364,3.943c0,1.621,1.062,2.485,2.575,3.223c1.099,0.541,2.251,0.721,2.251,1.333
		c0,0.36-0.505,0.54-0.937,0.54c-1.404,0-3.259-1.044-3.259-1.044s-0.379-0.145-0.576-0.036c-0.396,0.216-0.307,1.566-0.307,1.891
		c0,0.252-0.018,1.765,0.181,2.088c0.126,0.198,0.485,0.343,0.485,0.343s2.684,0.612,4.771,0.612c3.241,0,6.248-1.531,6.248-4.052
		C96.517,71.754,95.509,70.655,93.996,69.989z"/>
</g>
</svg>
