<?xml version="1.0" encoding="utf-8"?>
<!-- Generator: Adobe Illustrator 17.0.0, SVG Export Plug-In . SVG Version: 6.00 Build 0)  -->
<!DOCTYPE svg PUBLIC "-//W3C//DTD SVG 1.1//EN" "http://www.w3.org/Graphics/SVG/1.1/DTD/svg11.dtd">
<svg version="1.1" xmlns="http://www.w3.org/2000/svg" xmlns:xlink="http://www.w3.org/1999/xlink" x="0px" y="0px" width="300px"
	 height="200px" viewBox="0 0 300 200" enable-background="new 0 0 300 200" xml:space="preserve">
<g id="Layer_1">
	<path fill="#FF0000" d="M292.009,171.249c-6.2-20.333-12.502-40.634-18.744-60.954c-2.137-6.955-4.323-13.898-6.292-20.901
		c-2.997-10.658,5.935-23.25,17.213-24.441c0.868-0.092,1.744-0.117,2.618-0.141c3.088-0.087,5.913-0.982,5.671-4.603
		c-0.232-3.459-3.24-3.514-5.977-3.512c-29.367,0.017-58.733,0.017-88.1,0.017c-49.289,0.001-98.578,0-147.867-0.001
		c-2.23,0-4.461,0-7.131,0c0,7.39,0,13.802,0,20.883c5.992,0,11.701,0,17.411,0c10.138,0,20.277-0.03,30.415,0.01
		c9.716,0.038,18.003,6.469,20.349,15.732c1.748,6.904,3.606,13.784,5.139,20.736c0.901,4.085,3.406,6.135,7.251,6.279
		c15.889,0.596,31.784,1.283,47.678,1.298c4.736,0.004,9.501-1.97,14.204-3.223c8.551-2.279,14.355,0.788,16.735,9.346
		c4.763,17.124,9.376,34.289,14.033,51.442c2.236,8.237,3.037,8.875,11.505,8.873c15.73-0.004,31.464,0.202,47.186-0.159
		c3.99-0.092,8.303-1.313,11.82-3.214C292.386,181.872,293.787,177.078,292.009,171.249z M186.23,102.962
		c-0.485,6.627-8,11.049-16.643,10.681c-9.861-0.419-19.754-0.097-33.506-0.097c-5.044,0.369-9.092-2.299-11.562-10.624
		c-0.935-3.149-1.535-6.398-2.468-9.547c-2.12-7.156,2.079-12.656,9.484-12.198c13.401,0.829,26.8,1.697,40.198,2.588
		C180.858,84.372,186.993,92.533,186.23,102.962z"/>
	<path fill="#FF0000" d="M289.58,40.007c0-6.589,0.493-13.045-0.152-19.385c-0.538-5.292-4.881-6.62-9.729-6.611
		c-25.177,0.044-50.353,0.025-75.53,0.027c-10.293,0.001-20.585,0-31.651,0c0,4.804-0.126,9.278,0.037,13.741
		c0.151,4.141-1.409,6.14-5.771,6.093c-11.364-0.121-22.731-0.134-34.094,0.016c-4.369,0.058-5.944-1.854-5.772-6.028
		c0.179-4.341,0.04-8.696,0.04-13.818c-20.108,0-39.487,0-58.866,0c-10.839,0-21.678,0.029-32.517-0.014
		c-4.989-0.02-7.406,3.209-7.792,7.351c-0.563,6.037-0.145,12.165-0.145,18.628C114.985,40.007,201.954,40.007,289.58,40.007z
		 M269.016,21.734c4.022,3.984,7.322,8.697,11.424,13.747c-7.429,0.917-16.344-6.68-19.304-16.304
		C264.18,20.093,267.385,20.119,269.016,21.734z M242.085,19.555c2.49,0.567,5.781,0.33,7.316,1.857
		c4.119,4.099,7.487,8.954,11.153,13.508c-0.186,0.431-0.373,0.861-0.559,1.292c-2.33-0.318-5.521,0.215-6.832-1.11
		c-4.308-4.358-7.934-9.39-11.822-14.163C241.589,20.478,241.837,20.017,242.085,19.555z M222.494,19.828
		c2.337,0.21,5.597-0.483,6.843,0.792c4.373,4.475,8.052,9.627,11.994,14.522c-0.297,0.463-0.593,0.925-0.89,1.388
		c-2.521-0.697-5.784-0.638-7.417-2.24c-4.054-3.978-7.364-8.714-10.974-13.145C222.199,20.706,222.346,20.267,222.494,19.828z
		 M203.281,19.56c2.441,0.485,5.707,0.146,7.165,1.61c4.207,4.221,7.686,9.168,11.451,13.83c-0.222,0.455-0.444,0.91-0.666,1.366
		c-2.507-0.53-5.839-0.233-7.363-1.751c-4.127-4.108-7.487-8.988-11.15-13.562C202.906,20.555,203.094,20.057,203.281,19.56z
		 M184.174,19.208c2.576,0.9,5.824,1.112,7.591,2.84c3.936,3.849,7.131,8.456,10.628,12.754c-0.134,0.44-0.267,0.879-0.401,1.319
		c-2.308-0.246-5.498,0.382-6.763-0.896c-4.404-4.451-8.14-9.561-12.13-14.421C183.457,20.271,183.816,19.74,184.174,19.208z"/>
	<path fill="#FF0000" d="M289.518,52.218c0-2.79,0-5.03,0-7.658c-81.925,0-163.679,0-245.925,0c0,2.451,0,4.907,0,7.658
		C125.537,52.218,207.3,52.218,289.518,52.218z"/>
	<path fill="#FF0000" d="M16.586,44.436c0,9.647,0,18.803,0,28.739c6.592,0,12.977,0.099,19.351-0.111
		c0.914-0.03,2.533-1.529,2.551-2.376c0.19-8.658,0.116-17.322,0.116-26.252C31.037,44.436,24.126,44.436,16.586,44.436z"/>
	<path fill="#FF0000" d="M134.635,29.43c9.917,0.255,19.844,0.089,29.766,0.18c2.919,0.027,4.063-1.166,3.965-4.036
		c-0.124-3.617-0.03-7.241-0.03-11.266c-12.96,0-24.895,0-37.511,0c0,4.224-0.288,8.212,0.175,12.111
		C131.139,27.595,133.34,29.397,134.635,29.43z"/>
	<path fill="#FF0000" d="M218.985,191.573c0.04,4.843,2.235,6.91,6.744,6.897c17.975-0.053,35.951-0.134,53.924,0.006
		c5.854,0.046,4.185-3.44,3.809-6.903C261.928,191.573,240.57,191.573,218.985,191.573z"/>
	<path fill="#FF0000" d="M58.263,2.021C47.726-0.234,39.98,1.7,40.306,10.285c5.85,0,11.704,0,17.958,0
		C58.263,7.424,58.263,4.744,58.263,2.021z"/>
	<path fill="#FF0000" d="M254.696,1.221c-5.869,0.337-3.947,5.747-6.196,9.056c4.614,0,8.549,0,13.1,0
		C259.127,6.936,261.306,0.841,254.696,1.221z"/>
	<path fill="#FF0000" d="M9.978,53.203c-0.58,9.941-0.496,9.946,3.449,11.06c0-5.056,0-10.049,0-15.042
		c-0.474-0.222-0.949-0.443-1.423-0.665C11.3,50.104,10.07,51.62,9.978,53.203z"/>
	<path fill="#FF0000" d="M163.976,86.608c0.536,8.606,0.663,16.964-5.083,24.086c9.284-5.391,12.209-13.492,10.689-24.086
		C167.694,86.608,166.049,86.608,163.976,86.608z"/>
</g>
<g id="Layer_2">
</g>
</svg>
